<svg width="825" height="382" viewBox="0 0 825 382" fill="none" xmlns="http://www.w3.org/2000/svg">
<path d="M14.7784 54.8949L0 2.53126H10.2017L19.6364 41.0114H20.1222L30.196 2.53126H39.4773L49.5767 41.0369H50.0369L59.4716 2.53126H69.6733L54.8949 54.8949H45.5369L35.054 18.1534H34.6449L24.1364 54.8949H14.7784ZM85.0973 31.8835V54.8949H75.8416V2.53126H84.8928V22.2955H85.353C86.2734 20.0796 87.6967 18.3324 89.6229 17.054C91.5661 15.7585 94.0376 15.1108 97.0376 15.1108C99.7649 15.1108 102.143 15.6818 104.171 16.8239C106.2 17.9659 107.768 19.6364 108.876 21.8352C110.001 24.0341 110.563 26.7188 110.563 29.8892V54.8949H101.308V31.321C101.308 28.679 100.626 26.625 99.2621 25.1591C97.9155 23.6761 96.0234 22.9347 93.5859 22.9347C91.9496 22.9347 90.4837 23.2926 89.1882 24.0085C87.9098 24.7074 86.9041 25.7216 86.1712 27.0511C85.4553 28.3807 85.0973 29.9915 85.0973 31.8835ZM131.299 55.6875C128.81 55.6875 126.569 55.2443 124.575 54.358C122.597 53.4546 121.029 52.125 119.87 50.3693C118.728 48.6136 118.157 46.4489 118.157 43.875C118.157 41.6591 118.566 39.8267 119.384 38.3779C120.202 36.929 121.319 35.7699 122.734 34.9006C124.148 34.0313 125.742 33.375 127.515 32.9318C129.305 32.4716 131.154 32.1392 133.063 31.9347C135.364 31.696 137.231 31.483 138.663 31.2955C140.094 31.0909 141.134 30.7841 141.782 30.375C142.447 29.9489 142.779 29.2926 142.779 28.4063V28.2529C142.779 26.3267 142.208 24.8352 141.066 23.7784C139.924 22.7216 138.279 22.1932 136.131 22.1932C133.864 22.1932 132.066 22.6875 130.737 23.6761C129.424 24.6648 128.538 25.8324 128.077 27.179L119.435 25.9517C120.117 23.5654 121.242 21.571 122.81 19.9688C124.379 18.3494 126.296 17.1392 128.563 16.3381C130.83 15.5199 133.336 15.1108 136.08 15.1108C137.972 15.1108 139.856 15.3324 141.731 15.7756C143.606 16.2188 145.319 16.9517 146.87 17.9744C148.421 18.9801 149.665 20.3523 150.603 22.0909C151.558 23.8296 152.035 26.0029 152.035 28.6108V54.8949H143.137V49.5H142.83C142.268 50.5909 141.475 51.6136 140.452 52.5682C139.447 53.5057 138.177 54.2642 136.643 54.8438C135.126 55.4063 133.344 55.6875 131.299 55.6875ZM133.702 48.8864C135.56 48.8864 137.171 48.5199 138.535 47.7869C139.898 47.0369 140.947 46.0483 141.68 44.821C142.43 43.5938 142.805 42.2557 142.805 40.8068V36.179C142.515 36.4176 142.021 36.6392 141.322 36.8438C140.64 37.0483 139.873 37.2273 139.021 37.3807C138.168 37.5341 137.325 37.6705 136.489 37.7898C135.654 37.9091 134.93 38.0114 134.316 38.0966C132.935 38.2841 131.7 38.5909 130.609 39.0171C129.518 39.4432 128.657 40.0398 128.026 40.8068C127.396 41.5568 127.08 42.5284 127.08 43.7216C127.08 45.4261 127.702 46.7131 128.947 47.5824C130.191 48.4517 131.776 48.8864 133.702 48.8864ZM180.952 15.6222V22.7813H158.376V15.6222H180.952ZM163.95 6.21308H173.205V43.0824C173.205 44.3267 173.393 45.2813 173.768 45.946C174.16 46.5938 174.671 47.0369 175.302 47.2756C175.933 47.5142 176.631 47.6335 177.398 47.6335C177.978 47.6335 178.506 47.5909 178.984 47.5057C179.478 47.4205 179.853 47.3438 180.109 47.2756L181.668 54.5114C181.174 54.6818 180.467 54.8693 179.546 55.0739C178.643 55.2784 177.535 55.3977 176.222 55.4318C173.904 55.5 171.816 55.1506 169.958 54.3835C168.1 53.5994 166.626 52.3892 165.535 50.7529C164.461 49.1165 163.933 47.071 163.95 44.6165V6.21308ZM219.535 133.662C215.614 133.662 212.248 132.801 209.435 131.08C206.64 129.358 204.484 126.98 202.967 123.946C201.467 120.895 200.717 117.384 200.717 113.412C200.717 109.423 201.484 105.903 203.018 102.852C204.552 99.7841 206.717 97.3977 209.512 95.6932C212.325 93.9716 215.648 93.1108 219.484 93.1108C222.671 93.1108 225.492 93.6989 227.947 94.875C230.418 96.0341 232.387 97.679 233.853 99.8097C235.319 101.923 236.154 104.395 236.359 107.224H227.512C227.154 105.332 226.302 103.756 224.955 102.494C223.626 101.216 221.844 100.577 219.612 100.577C217.719 100.577 216.058 101.088 214.626 102.111C213.194 103.116 212.077 104.565 211.276 106.457C210.492 108.349 210.1 110.616 210.1 113.259C210.1 115.935 210.492 118.236 211.276 120.162C212.06 122.071 213.16 123.545 214.575 124.585C216.006 125.608 217.685 126.119 219.612 126.119C220.975 126.119 222.194 125.864 223.268 125.352C224.359 124.824 225.271 124.065 226.004 123.077C226.737 122.088 227.239 120.886 227.512 119.472H236.359C236.137 122.25 235.319 124.713 233.904 126.861C232.489 128.991 230.563 130.662 228.126 131.872C225.688 133.065 222.825 133.662 219.535 133.662ZM255.26 133.688C252.771 133.688 250.53 133.244 248.536 132.358C246.558 131.455 244.99 130.125 243.831 128.369C242.689 126.614 242.118 124.449 242.118 121.875C242.118 119.659 242.527 117.827 243.345 116.378C244.163 114.929 245.28 113.77 246.695 112.901C248.109 112.031 249.703 111.375 251.476 110.932C253.266 110.472 255.115 110.139 257.024 109.935C259.325 109.696 261.192 109.483 262.624 109.295C264.055 109.091 265.095 108.784 265.743 108.375C266.408 107.949 266.74 107.293 266.74 106.406V106.253C266.74 104.327 266.169 102.835 265.027 101.778C263.885 100.722 262.24 100.193 260.092 100.193C257.825 100.193 256.027 100.688 254.697 101.676C253.385 102.665 252.499 103.832 252.038 105.179L243.396 103.952C244.078 101.565 245.203 99.571 246.771 97.9688C248.339 96.3494 250.257 95.1392 252.524 94.3381C254.791 93.5199 257.297 93.1108 260.041 93.1108C261.933 93.1108 263.817 93.3324 265.692 93.7756C267.567 94.2188 269.28 94.9517 270.831 95.9744C272.382 96.9801 273.626 98.3523 274.564 100.091C275.518 101.83 275.996 104.003 275.996 106.611V132.895H267.098V127.5H266.791C266.229 128.591 265.436 129.614 264.413 130.568C263.408 131.506 262.138 132.264 260.604 132.844C259.087 133.406 257.305 133.688 255.26 133.688ZM257.663 126.886C259.521 126.886 261.132 126.52 262.496 125.787C263.859 125.037 264.908 124.048 265.641 122.821C266.391 121.594 266.766 120.256 266.766 118.807V114.179C266.476 114.418 265.982 114.639 265.283 114.844C264.601 115.048 263.834 115.227 262.982 115.381C262.129 115.534 261.286 115.67 260.45 115.79C259.615 115.909 258.891 116.011 258.277 116.097C256.896 116.284 255.661 116.591 254.57 117.017C253.479 117.443 252.618 118.04 251.987 118.807C251.357 119.557 251.041 120.528 251.041 121.722C251.041 123.426 251.663 124.713 252.908 125.582C254.152 126.452 255.737 126.886 257.663 126.886ZM294.558 109.884V132.895H285.303V93.6222H294.149V100.295H294.609C295.513 98.0966 296.953 96.3494 298.93 95.054C300.925 93.7585 303.388 93.1108 306.32 93.1108C309.03 93.1108 311.391 93.6904 313.402 94.8494C315.43 96.0085 316.999 97.6875 318.107 99.8864C319.232 102.085 319.786 104.753 319.768 107.889V132.895H310.513V109.321C310.513 106.696 309.831 104.642 308.467 103.159C307.121 101.676 305.254 100.935 302.868 100.935C301.249 100.935 299.808 101.293 298.547 102.009C297.303 102.707 296.322 103.722 295.607 105.051C294.908 106.381 294.558 107.991 294.558 109.884ZM356.293 109.884V132.895H347.037V80.5313H356.088V100.295H356.548C357.469 98.0796 358.892 96.3324 360.818 95.054C362.761 93.7585 365.233 93.1108 368.233 93.1108C370.96 93.1108 373.338 93.6818 375.366 94.8239C377.395 95.9659 378.963 97.6364 380.071 99.8352C381.196 102.034 381.759 104.719 381.759 107.889V132.895H372.503V109.321C372.503 106.679 371.821 104.625 370.457 103.159C369.111 101.676 367.219 100.935 364.781 100.935C363.145 100.935 361.679 101.293 360.384 102.009C359.105 102.707 358.099 103.722 357.366 105.051C356.651 106.381 356.293 107.991 356.293 109.884ZM408.58 133.662C404.642 133.662 401.241 132.844 398.378 131.207C395.531 129.554 393.341 127.219 391.807 124.202C390.273 121.168 389.506 117.597 389.506 113.489C389.506 109.449 390.273 105.903 391.807 102.852C393.358 99.7841 395.523 97.3977 398.301 95.6932C401.08 93.9716 404.344 93.1108 408.094 93.1108C410.514 93.1108 412.798 93.5029 414.946 94.2869C417.111 95.054 419.02 96.2472 420.673 97.8665C422.344 99.4858 423.656 101.548 424.611 104.054C425.565 106.543 426.043 109.509 426.043 112.952V115.79H393.852V109.551H417.17C417.153 107.778 416.77 106.202 416.02 104.821C415.27 103.423 414.222 102.324 412.875 101.523C411.545 100.722 409.994 100.321 408.222 100.321C406.33 100.321 404.668 100.781 403.236 101.702C401.804 102.605 400.688 103.798 399.886 105.281C399.102 106.747 398.702 108.358 398.685 110.114V115.56C398.685 117.844 399.102 119.804 399.938 121.44C400.773 123.06 401.94 124.304 403.44 125.173C404.94 126.026 406.696 126.452 408.707 126.452C410.054 126.452 411.273 126.264 412.364 125.889C413.455 125.497 414.401 124.926 415.202 124.176C416.003 123.426 416.608 122.497 417.017 121.389L425.659 122.361C425.114 124.645 424.074 126.639 422.54 128.344C421.023 130.031 419.08 131.344 416.71 132.281C414.341 133.202 411.631 133.662 408.58 133.662ZM443.129 80.5313V132.895H433.873V80.5313H443.129ZM452.646 147.622V93.6222H461.749V100.116H462.286C462.763 99.1619 463.436 98.1477 464.305 97.0739C465.175 95.983 466.351 95.054 467.834 94.2869C469.317 93.5029 471.209 93.1108 473.51 93.1108C476.544 93.1108 479.28 93.8864 481.717 95.4375C484.172 96.9716 486.115 99.2472 487.547 102.264C488.996 105.264 489.72 108.946 489.72 113.31C489.72 117.622 489.013 121.287 487.598 124.304C486.183 127.321 484.257 129.622 481.82 131.207C479.382 132.793 476.621 133.585 473.536 133.585C471.286 133.585 469.419 133.21 467.936 132.46C466.453 131.71 465.26 130.807 464.357 129.75C463.47 128.676 462.78 127.662 462.286 126.707H461.902V147.622H452.646ZM461.723 113.259C461.723 115.798 462.081 118.023 462.797 119.932C463.53 121.841 464.578 123.332 465.942 124.406C467.322 125.463 468.993 125.991 470.953 125.991C472.999 125.991 474.712 125.446 476.092 124.355C477.473 123.247 478.513 121.739 479.212 119.83C479.928 117.903 480.286 115.713 480.286 113.259C480.286 110.821 479.936 108.656 479.237 106.764C478.538 104.872 477.499 103.389 476.118 102.315C474.737 101.241 473.016 100.705 470.953 100.705C468.976 100.705 467.297 101.224 465.916 102.264C464.536 103.304 463.487 104.761 462.771 106.636C462.072 108.511 461.723 110.719 461.723 113.259ZM515.506 147.622V93.6222H524.608V100.116H525.145C525.622 99.1619 526.295 98.1477 527.165 97.0739C528.034 95.983 529.21 95.054 530.693 94.2869C532.176 93.5029 534.068 93.1108 536.369 93.1108C539.403 93.1108 542.139 93.8864 544.577 95.4375C547.031 96.9716 548.974 99.2472 550.406 102.264C551.855 105.264 552.58 108.946 552.58 113.31C552.58 117.622 551.872 121.287 550.457 124.304C549.043 127.321 547.116 129.622 544.679 131.207C542.241 132.793 539.48 133.585 536.395 133.585C534.145 133.585 532.278 133.21 530.795 132.46C529.313 131.71 528.119 130.807 527.216 129.75C526.33 128.676 525.639 127.662 525.145 126.707H524.761V147.622H515.506ZM524.582 113.259C524.582 115.798 524.94 118.023 525.656 119.932C526.389 121.841 527.438 123.332 528.801 124.406C530.182 125.463 531.852 125.991 533.812 125.991C535.858 125.991 537.571 125.446 538.952 124.355C540.332 123.247 541.372 121.739 542.071 119.83C542.787 117.903 543.145 115.713 543.145 113.259C543.145 110.821 542.795 108.656 542.097 106.764C541.398 104.872 540.358 103.389 538.977 102.315C537.597 101.241 535.875 100.705 533.812 100.705C531.835 100.705 530.156 101.224 528.776 102.264C527.395 103.304 526.347 104.761 525.631 106.636C524.932 108.511 524.582 110.719 524.582 113.259ZM577.892 133.662C573.955 133.662 570.554 132.844 567.69 131.207C564.844 129.554 562.653 127.219 561.119 124.202C559.585 121.168 558.818 117.597 558.818 113.489C558.818 109.449 559.585 105.903 561.119 102.852C562.67 99.7841 564.835 97.3977 567.614 95.6932C570.392 93.9716 573.656 93.1108 577.406 93.1108C579.827 93.1108 582.111 93.5029 584.259 94.2869C586.423 95.054 588.332 96.2472 589.986 97.8665C591.656 99.4858 592.969 101.548 593.923 104.054C594.878 106.543 595.355 109.509 595.355 112.952V115.79H563.165V109.551H586.483C586.466 107.778 586.082 106.202 585.332 104.821C584.582 103.423 583.534 102.324 582.188 101.523C580.858 100.722 579.307 100.321 577.534 100.321C575.642 100.321 573.98 100.781 572.548 101.702C571.116 102.605 570 103.798 569.199 105.281C568.415 106.747 568.014 108.358 567.997 110.114V115.56C567.997 117.844 568.415 119.804 569.25 121.44C570.085 123.06 571.253 124.304 572.753 125.173C574.253 126.026 576.009 126.452 578.02 126.452C579.366 126.452 580.585 126.264 581.676 125.889C582.767 125.497 583.713 124.926 584.514 124.176C585.315 123.426 585.92 122.497 586.33 121.389L594.972 122.361C594.426 124.645 593.386 126.639 591.852 128.344C590.335 130.031 588.392 131.344 586.023 132.281C583.653 133.202 580.943 133.662 577.892 133.662ZM620.316 133.662C616.481 133.662 613.157 132.818 610.344 131.131C607.532 129.443 605.35 127.082 603.799 124.048C602.265 121.014 601.498 117.469 601.498 113.412C601.498 109.355 602.265 105.801 603.799 102.75C605.35 99.6989 607.532 97.3296 610.344 95.6421C613.157 93.9546 616.481 93.1108 620.316 93.1108C624.151 93.1108 627.475 93.9546 630.288 95.6421C633.1 97.3296 635.273 99.6989 636.808 102.75C638.359 105.801 639.134 109.355 639.134 113.412C639.134 117.469 638.359 121.014 636.808 124.048C635.273 127.082 633.1 129.443 630.288 131.131C627.475 132.818 624.151 133.662 620.316 133.662ZM620.367 126.247C622.447 126.247 624.185 125.676 625.583 124.534C626.981 123.375 628.021 121.824 628.702 119.881C629.401 117.938 629.751 115.773 629.751 113.386C629.751 110.983 629.401 108.81 628.702 106.866C628.021 104.906 626.981 103.347 625.583 102.188C624.185 101.028 622.447 100.449 620.367 100.449C618.237 100.449 616.464 101.028 615.049 102.188C613.651 103.347 612.603 104.906 611.904 106.866C611.222 108.81 610.881 110.983 610.881 113.386C610.881 115.773 611.222 117.938 611.904 119.881C612.603 121.824 613.651 123.375 615.049 124.534C616.464 125.676 618.237 126.247 620.367 126.247ZM646.99 147.622V93.6222H656.092V100.116H656.629C657.107 99.1619 657.78 98.1477 658.649 97.0739C659.518 95.983 660.695 95.054 662.178 94.2869C663.661 93.5029 665.553 93.1108 667.854 93.1108C670.888 93.1108 673.624 93.8864 676.061 95.4375C678.516 96.9716 680.459 99.2472 681.891 102.264C683.339 105.264 684.064 108.946 684.064 113.31C684.064 117.622 683.357 121.287 681.942 124.304C680.527 127.321 678.601 129.622 676.163 131.207C673.726 132.793 670.964 133.585 667.879 133.585C665.629 133.585 663.763 133.21 662.28 132.46C660.797 131.71 659.604 130.807 658.7 129.75C657.814 128.676 657.124 127.662 656.629 126.707H656.246V147.622H646.99ZM656.067 113.259C656.067 115.798 656.425 118.023 657.141 119.932C657.874 121.841 658.922 123.332 660.286 124.406C661.666 125.463 663.337 125.991 665.297 125.991C667.342 125.991 669.055 125.446 670.436 124.355C671.817 123.247 672.857 121.739 673.555 119.83C674.271 117.903 674.629 115.713 674.629 113.259C674.629 110.821 674.28 108.656 673.581 106.764C672.882 104.872 671.842 103.389 670.462 102.315C669.081 101.241 667.359 100.705 665.297 100.705C663.32 100.705 661.641 101.224 660.26 102.264C658.879 103.304 657.831 104.761 657.115 106.636C656.416 108.511 656.067 110.719 656.067 113.259ZM701.246 80.5313V132.895H691.99V80.5313H701.246ZM728.15 133.662C724.212 133.662 720.812 132.844 717.948 131.207C715.102 129.554 712.911 127.219 711.377 124.202C709.843 121.168 709.076 117.597 709.076 113.489C709.076 109.449 709.843 105.903 711.377 102.852C712.928 99.7841 715.093 97.3977 717.871 95.6932C720.65 93.9716 723.914 93.1108 727.664 93.1108C730.085 93.1108 732.369 93.5029 734.516 94.2869C736.681 95.054 738.59 96.2472 740.244 97.8665C741.914 99.4858 743.227 101.548 744.181 104.054C745.136 106.543 745.613 109.509 745.613 112.952V115.79H713.423V109.551H736.741C736.724 107.778 736.34 106.202 735.59 104.821C734.84 103.423 733.792 102.324 732.445 101.523C731.116 100.722 729.565 100.321 727.792 100.321C725.9 100.321 724.238 100.781 722.806 101.702C721.374 102.605 720.258 103.798 719.457 105.281C718.673 106.747 718.272 108.358 718.255 110.114V115.56C718.255 117.844 718.673 119.804 719.508 121.44C720.343 123.06 721.511 124.304 723.011 125.173C724.511 126.026 726.266 126.452 728.278 126.452C729.624 126.452 730.843 126.264 731.934 125.889C733.025 125.497 733.971 124.926 734.772 124.176C735.573 123.426 736.178 122.497 736.587 121.389L745.229 122.361C744.684 124.645 743.644 126.639 742.11 128.344C740.593 130.031 738.65 131.344 736.281 132.281C733.911 133.202 731.201 133.662 728.15 133.662ZM771.303 132.895V93.6222H780.558V132.895H771.303ZM775.956 88.0483C774.49 88.0483 773.229 87.5625 772.172 86.5909C771.115 85.6023 770.587 84.4176 770.587 83.0369C770.587 81.6392 771.115 80.4546 772.172 79.483C773.229 78.4943 774.49 78 775.956 78C777.439 78 778.7 78.4943 779.74 79.483C780.797 80.4546 781.325 81.6392 781.325 83.0369C781.325 84.4176 780.797 85.6023 779.74 86.5909C778.7 87.5625 777.439 88.0483 775.956 88.0483ZM799.332 109.884V132.895H790.076V93.6222H798.923V100.295H799.383C800.286 98.0966 801.727 96.3494 803.704 95.054C805.698 93.7585 808.161 93.1108 811.093 93.1108C813.803 93.1108 816.164 93.6904 818.175 94.8494C820.204 96.0085 821.772 97.6875 822.88 99.8864C824.005 102.085 824.559 104.753 824.542 107.889V132.895H815.286V109.321C815.286 106.696 814.604 104.642 813.241 103.159C811.894 101.676 810.028 100.935 807.641 100.935C806.022 100.935 804.582 101.293 803.32 102.009C802.076 102.707 801.096 103.722 800.38 105.051C799.681 106.381 799.332 107.991 799.332 109.884ZM367.491 249.622V256.781H344.915V249.622H367.491ZM350.489 240.213H359.744V277.082C359.744 278.327 359.932 279.281 360.307 279.946C360.699 280.594 361.21 281.037 361.841 281.276C362.472 281.514 363.17 281.634 363.938 281.634C364.517 281.634 365.045 281.591 365.523 281.506C366.017 281.42 366.392 281.344 366.648 281.276L368.207 288.511C367.713 288.682 367.006 288.869 366.085 289.074C365.182 289.278 364.074 289.398 362.761 289.432C360.443 289.5 358.355 289.151 356.497 288.384C354.639 287.599 353.165 286.389 352.074 284.753C351 283.116 350.472 281.071 350.489 278.616V240.213ZM391.941 289.662C388.106 289.662 384.782 288.818 381.969 287.131C379.157 285.443 376.975 283.082 375.424 280.048C373.89 277.014 373.123 273.469 373.123 269.412C373.123 265.355 373.89 261.801 375.424 258.75C376.975 255.699 379.157 253.33 381.969 251.642C384.782 249.955 388.106 249.111 391.941 249.111C395.776 249.111 399.1 249.955 401.913 251.642C404.725 253.33 406.898 255.699 408.433 258.75C409.984 261.801 410.759 265.355 410.759 269.412C410.759 273.469 409.984 277.014 408.433 280.048C406.898 283.082 404.725 285.443 401.913 287.131C399.1 288.818 395.776 289.662 391.941 289.662ZM391.992 282.247C394.072 282.247 395.81 281.676 397.208 280.534C398.606 279.375 399.646 277.824 400.327 275.881C401.026 273.938 401.376 271.773 401.376 269.386C401.376 266.983 401.026 264.81 400.327 262.866C399.646 260.906 398.606 259.347 397.208 258.188C395.81 257.028 394.072 256.449 391.992 256.449C389.862 256.449 388.089 257.028 386.674 258.188C385.276 259.347 384.228 260.906 383.529 262.866C382.847 264.81 382.506 266.983 382.506 269.386C382.506 271.773 382.847 273.938 383.529 275.881C384.228 277.824 385.276 279.375 386.674 280.534C388.089 281.676 389.862 282.247 391.992 282.247ZM453.605 289.662C449.685 289.662 446.318 288.801 443.506 287.08C440.71 285.358 438.554 282.98 437.037 279.946C435.537 276.895 434.787 273.384 434.787 269.412C434.787 265.423 435.554 261.903 437.088 258.852C438.622 255.784 440.787 253.398 443.582 251.693C446.395 249.972 449.719 249.111 453.554 249.111C456.741 249.111 459.563 249.699 462.017 250.875C464.489 252.034 466.457 253.679 467.923 255.81C469.389 257.923 470.224 260.395 470.429 263.224H461.582C461.224 261.332 460.372 259.756 459.026 258.494C457.696 257.216 455.915 256.577 453.682 256.577C451.79 256.577 450.128 257.088 448.696 258.111C447.264 259.116 446.148 260.565 445.347 262.457C444.563 264.349 444.17 266.616 444.17 269.259C444.17 271.935 444.563 274.236 445.347 276.162C446.131 278.071 447.23 279.545 448.645 280.585C450.077 281.608 451.756 282.119 453.682 282.119C455.045 282.119 456.264 281.864 457.338 281.352C458.429 280.824 459.341 280.065 460.074 279.077C460.807 278.088 461.31 276.886 461.582 275.472H470.429C470.207 278.25 469.389 280.713 467.974 282.861C466.56 284.991 464.634 286.662 462.196 287.872C459.759 289.065 456.895 289.662 453.605 289.662ZM495.16 289.662C491.325 289.662 488.001 288.818 485.188 287.131C482.376 285.443 480.194 283.082 478.643 280.048C477.109 277.014 476.342 273.469 476.342 269.412C476.342 265.355 477.109 261.801 478.643 258.75C480.194 255.699 482.376 253.33 485.188 251.642C488.001 249.955 491.325 249.111 495.16 249.111C498.995 249.111 502.319 249.955 505.131 251.642C507.944 253.33 510.117 255.699 511.651 258.75C513.202 261.801 513.978 265.355 513.978 269.412C513.978 273.469 513.202 277.014 511.651 280.048C510.117 283.082 507.944 285.443 505.131 287.131C502.319 288.818 498.995 289.662 495.16 289.662ZM495.211 282.247C497.29 282.247 499.029 281.676 500.427 280.534C501.825 279.375 502.864 277.824 503.546 275.881C504.245 273.938 504.594 271.773 504.594 269.386C504.594 266.983 504.245 264.81 503.546 262.866C502.864 260.906 501.825 259.347 500.427 258.188C499.029 257.028 497.29 256.449 495.211 256.449C493.08 256.449 491.308 257.028 489.893 258.188C488.495 259.347 487.447 260.906 486.748 262.866C486.066 264.81 485.725 266.983 485.725 269.386C485.725 271.773 486.066 273.938 486.748 275.881C487.447 277.824 488.495 279.375 489.893 280.534C491.308 281.676 493.08 282.247 495.211 282.247ZM521.834 303.622V249.622H530.936V256.116H531.473C531.95 255.162 532.624 254.148 533.493 253.074C534.362 251.983 535.538 251.054 537.021 250.287C538.504 249.503 540.396 249.111 542.697 249.111C545.732 249.111 548.467 249.886 550.905 251.438C553.359 252.972 555.303 255.247 556.734 258.264C558.183 261.264 558.908 264.946 558.908 269.31C558.908 273.622 558.2 277.287 556.786 280.304C555.371 283.321 553.445 285.622 551.007 287.207C548.57 288.793 545.808 289.585 542.723 289.585C540.473 289.585 538.607 289.21 537.124 288.46C535.641 287.71 534.447 286.807 533.544 285.75C532.658 284.676 531.967 283.662 531.473 282.707H531.089V303.622H521.834ZM530.911 269.259C530.911 271.798 531.268 274.023 531.984 275.932C532.717 277.841 533.766 279.332 535.129 280.406C536.51 281.463 538.18 281.991 540.141 281.991C542.186 281.991 543.899 281.446 545.28 280.355C546.661 279.247 547.7 277.739 548.399 275.83C549.115 273.903 549.473 271.713 549.473 269.259C549.473 266.821 549.124 264.656 548.425 262.764C547.726 260.872 546.686 259.389 545.305 258.315C543.925 257.241 542.203 256.705 540.141 256.705C538.163 256.705 536.484 257.224 535.104 258.264C533.723 259.304 532.675 260.761 531.959 262.636C531.26 264.511 530.911 266.719 530.911 269.259ZM584.22 289.662C580.283 289.662 576.882 288.844 574.018 287.207C571.172 285.554 568.982 283.219 567.447 280.202C565.913 277.168 565.146 273.597 565.146 269.489C565.146 265.449 565.913 261.903 567.447 258.852C568.999 255.784 571.163 253.398 573.942 251.693C576.72 249.972 579.984 249.111 583.734 249.111C586.155 249.111 588.439 249.503 590.587 250.287C592.751 251.054 594.661 252.247 596.314 253.866C597.984 255.486 599.297 257.548 600.251 260.054C601.206 262.543 601.683 265.509 601.683 268.952V271.79H569.493V265.551H592.811C592.794 263.778 592.411 262.202 591.661 260.821C590.911 259.423 589.862 258.324 588.516 257.523C587.186 256.722 585.635 256.321 583.862 256.321C581.97 256.321 580.308 256.781 578.876 257.702C577.445 258.605 576.328 259.798 575.527 261.281C574.743 262.747 574.342 264.358 574.325 266.114V271.56C574.325 273.844 574.743 275.804 575.578 277.44C576.413 279.06 577.581 280.304 579.081 281.173C580.581 282.026 582.337 282.452 584.348 282.452C585.695 282.452 586.913 282.264 588.004 281.889C589.095 281.497 590.041 280.926 590.842 280.176C591.643 279.426 592.249 278.497 592.658 277.389L601.3 278.361C600.754 280.645 599.714 282.639 598.18 284.344C596.663 286.031 594.72 287.344 592.351 288.281C589.982 289.202 587.271 289.662 584.22 289.662ZM635.478 288.895L624.381 249.622H633.816L640.719 277.236H641.077L648.134 249.622H657.467L664.523 277.082H664.907L671.708 249.622H681.168L670.046 288.895H660.407L653.043 262.355H652.506L645.143 288.895H635.478ZM687.631 288.895V249.622H696.886V288.895H687.631ZM692.284 244.048C690.818 244.048 689.557 243.563 688.5 242.591C687.443 241.602 686.915 240.418 686.915 239.037C686.915 237.639 687.443 236.455 688.5 235.483C689.557 234.494 690.818 234 692.284 234C693.767 234 695.028 234.494 696.068 235.483C697.125 236.455 697.653 237.639 697.653 239.037C697.653 240.418 697.125 241.602 696.068 242.591C695.028 243.563 693.767 244.048 692.284 244.048ZM726.015 249.622V256.781H703.438V249.622H726.015ZM709.012 240.213H718.268V277.082C718.268 278.327 718.455 279.281 718.83 279.946C719.222 280.594 719.734 281.037 720.364 281.276C720.995 281.514 721.694 281.634 722.461 281.634C723.04 281.634 723.569 281.591 724.046 281.506C724.54 281.42 724.915 281.344 725.171 281.276L726.731 288.511C726.237 288.682 725.529 288.869 724.609 289.074C723.705 289.278 722.597 289.398 721.285 289.432C718.967 289.5 716.879 289.151 715.021 288.384C713.163 287.599 711.688 286.389 710.597 284.753C709.523 283.116 708.995 281.071 709.012 278.616V240.213ZM743.855 265.884V288.895H734.599V236.531H743.651V256.295H744.111C745.031 254.08 746.455 252.332 748.381 251.054C750.324 249.759 752.795 249.111 755.795 249.111C758.523 249.111 760.901 249.682 762.929 250.824C764.957 251.966 766.526 253.636 767.634 255.835C768.759 258.034 769.321 260.719 769.321 263.889V288.895H760.065V265.321C760.065 262.679 759.384 260.625 758.02 259.159C756.673 257.676 754.781 256.935 752.344 256.935C750.707 256.935 749.241 257.293 747.946 258.009C746.668 258.707 745.662 259.722 744.929 261.051C744.213 262.381 743.855 263.991 743.855 265.884ZM458.61 351.503V350.838C458.627 347.753 458.917 345.298 459.479 343.474C460.059 341.651 460.877 340.185 461.934 339.077C462.991 337.952 464.278 336.92 465.795 335.983C466.835 335.335 467.763 334.628 468.582 333.861C469.417 333.077 470.073 332.207 470.55 331.253C471.028 330.281 471.266 329.199 471.266 328.006C471.266 326.659 470.951 325.491 470.32 324.503C469.69 323.514 468.837 322.747 467.763 322.202C466.707 321.656 465.522 321.384 464.21 321.384C462.999 321.384 461.849 321.648 460.758 322.176C459.684 322.688 458.789 323.472 458.073 324.528C457.374 325.568 456.982 326.889 456.897 328.491H447.795C447.88 325.253 448.664 322.543 450.147 320.361C451.647 318.179 453.624 316.543 456.079 315.452C458.55 314.361 461.278 313.815 464.261 313.815C467.516 313.815 470.38 314.386 472.852 315.528C475.34 316.67 477.275 318.298 478.656 320.412C480.053 322.509 480.752 324.997 480.752 327.878C480.752 329.821 480.437 331.56 479.806 333.094C479.192 334.628 478.315 335.991 477.173 337.185C476.031 338.378 474.675 339.443 473.107 340.381C471.727 341.233 470.593 342.119 469.707 343.04C468.837 343.96 468.19 345.043 467.763 346.287C467.354 347.514 467.141 349.031 467.124 350.838V351.503H458.61ZM463.059 367.457C461.525 367.457 460.204 366.912 459.096 365.821C457.988 364.73 457.434 363.401 457.434 361.832C457.434 360.298 457.988 358.986 459.096 357.895C460.204 356.804 461.525 356.259 463.059 356.259C464.576 356.259 465.888 356.804 466.996 357.895C468.121 358.986 468.684 360.298 468.684 361.832C468.684 362.872 468.42 363.818 467.891 364.67C467.38 365.523 466.698 366.205 465.846 366.716C465.011 367.21 464.082 367.457 463.059 367.457Z" fill="black"/>
<path d="M237.592 26.0029L229.155 26.9233C228.916 26.071 228.499 25.2699 227.902 24.5199C227.322 23.7699 226.538 23.1648 225.55 22.7046C224.561 22.2443 223.351 22.0142 221.919 22.0142C219.993 22.0142 218.374 22.4318 217.061 23.2671C215.766 24.1023 215.126 25.1847 215.143 26.5142C215.126 27.6563 215.544 28.5852 216.396 29.3011C217.266 30.0171 218.697 30.6051 220.692 31.0654L227.391 32.4972C231.107 33.2983 233.868 34.5682 235.675 36.3068C237.499 38.0455 238.419 40.321 238.436 43.1335C238.419 45.6051 237.695 47.7869 236.263 49.679C234.848 51.554 232.879 53.0199 230.357 54.0767C227.834 55.1335 224.936 55.6619 221.663 55.6619C216.857 55.6619 212.987 54.6563 210.055 52.6449C207.124 50.6165 205.376 47.7955 204.814 44.1818L213.839 43.3125C214.249 45.0852 215.118 46.4233 216.447 47.3267C217.777 48.2301 219.507 48.6818 221.638 48.6818C223.837 48.6818 225.601 48.2301 226.93 47.3267C228.277 46.4233 228.95 45.3068 228.95 43.9773C228.95 42.8523 228.516 41.9233 227.646 41.1904C226.794 40.4574 225.464 39.8949 223.658 39.5029L216.959 38.0966C213.192 37.3125 210.405 35.9915 208.598 34.1335C206.791 32.2585 205.896 29.8892 205.913 27.0256C205.896 24.6051 206.553 22.5085 207.882 20.7358C209.229 18.946 211.095 17.5654 213.482 16.5938C215.885 15.6051 218.655 15.1108 221.791 15.1108C226.393 15.1108 230.016 16.0909 232.658 18.0511C235.317 20.0114 236.962 22.6619 237.592 26.0029ZM263.199 55.6619C259.364 55.6619 256.04 54.8182 253.227 53.1307C250.415 51.4432 248.233 49.0824 246.682 46.0483C245.148 43.0142 244.381 39.4688 244.381 35.4119C244.381 31.3551 245.148 27.8011 246.682 24.75C248.233 21.6989 250.415 19.3296 253.227 17.6421C256.04 15.9546 259.364 15.1108 263.199 15.1108C267.034 15.1108 270.358 15.9546 273.17 17.6421C275.983 19.3296 278.156 21.6989 279.69 24.75C281.241 27.8011 282.017 31.3551 282.017 35.4119C282.017 39.4688 281.241 43.0142 279.69 46.0483C278.156 49.0824 275.983 51.4432 273.17 53.1307C270.358 54.8182 267.034 55.6619 263.199 55.6619ZM263.25 48.2472C265.33 48.2472 267.068 47.6761 268.466 46.5341C269.864 45.375 270.903 43.8239 271.585 41.8807C272.284 39.9375 272.634 37.7727 272.634 35.3864C272.634 32.983 272.284 30.8097 271.585 28.8665C270.903 26.9063 269.864 25.3466 268.466 24.1875C267.068 23.0284 265.33 22.4489 263.25 22.4489C261.119 22.4489 259.347 23.0284 257.932 24.1875C256.534 25.3466 255.486 26.9063 254.787 28.8665C254.105 30.8097 253.764 32.983 253.764 35.3864C253.764 37.7727 254.105 39.9375 254.787 41.8807C255.486 43.8239 256.534 45.375 257.932 46.5341C259.347 47.6761 261.119 48.2472 263.25 48.2472ZM307.004 55.6619C303.083 55.6619 299.717 54.8011 296.904 53.0796C294.109 51.358 291.952 48.9801 290.435 45.946C288.935 42.8949 288.185 39.3835 288.185 35.4119C288.185 31.4233 288.952 27.9034 290.487 24.8523C292.021 21.7841 294.185 19.3977 296.981 17.6932C299.793 15.9716 303.117 15.1108 306.952 15.1108C310.14 15.1108 312.961 15.6989 315.415 16.875C317.887 18.0341 319.856 19.679 321.322 21.8097C322.788 23.9233 323.623 26.3949 323.827 29.2244H314.981C314.623 27.3324 313.771 25.7557 312.424 24.4943C311.094 23.2159 309.313 22.5767 307.08 22.5767C305.188 22.5767 303.526 23.0881 302.094 24.1108C300.663 25.1165 299.546 26.5654 298.745 28.4574C297.961 30.3494 297.569 32.6165 297.569 35.2585C297.569 37.9347 297.961 40.2358 298.745 42.1619C299.529 44.071 300.629 45.5455 302.043 46.5852C303.475 47.608 305.154 48.1193 307.08 48.1193C308.444 48.1193 309.663 47.8636 310.737 47.3523C311.827 46.8239 312.739 46.0654 313.472 45.0767C314.205 44.0881 314.708 42.8864 314.981 41.4716H323.827C323.606 44.25 322.788 46.7131 321.373 48.8608C319.958 50.9915 318.032 52.6619 315.594 53.8722C313.157 55.0654 310.293 55.6619 307.004 55.6619ZM331.428 54.8949V15.6222H340.683V54.8949H331.428ZM336.081 10.0483C334.615 10.0483 333.354 9.56251 332.297 8.59092C331.24 7.60228 330.712 6.41762 330.712 5.03694C330.712 3.63921 331.24 2.45455 332.297 1.48296C333.354 0.494327 334.615 9.53674e-06 336.081 9.53674e-06C337.564 9.53674e-06 338.825 0.494327 339.865 1.48296C340.922 2.45455 341.45 3.63921 341.45 5.03694C341.45 6.41762 340.922 7.60228 339.865 8.59092C338.825 9.56251 337.564 10.0483 336.081 10.0483ZM361.502 55.6875C359.013 55.6875 356.772 55.2443 354.778 54.358C352.8 53.4546 351.232 52.125 350.073 50.3693C348.931 48.6136 348.36 46.4489 348.36 43.875C348.36 41.6591 348.769 39.8267 349.587 38.3779C350.406 36.929 351.522 35.7699 352.937 34.9006C354.352 34.0313 355.945 33.375 357.718 32.9318C359.508 32.4716 361.357 32.1392 363.266 31.9347C365.567 31.696 367.434 31.483 368.866 31.2955C370.298 31.0909 371.337 30.7841 371.985 30.375C372.65 29.9489 372.982 29.2926 372.982 28.4063V28.2529C372.982 26.3267 372.411 24.8352 371.269 23.7784C370.127 22.7216 368.482 22.1932 366.335 22.1932C364.067 22.1932 362.269 22.6875 360.94 23.6761C359.627 24.6648 358.741 25.8324 358.281 27.179L349.638 25.9517C350.32 23.5654 351.445 21.571 353.013 19.9688C354.582 18.3494 356.499 17.1392 358.766 16.3381C361.033 15.5199 363.539 15.1108 366.283 15.1108C368.175 15.1108 370.059 15.3324 371.934 15.7756C373.809 16.2188 375.522 16.9517 377.073 17.9744C378.624 18.9801 379.869 20.3523 380.806 22.0909C381.761 23.8296 382.238 26.0029 382.238 28.6108V54.8949H373.34V49.5H373.033C372.471 50.5909 371.678 51.6136 370.656 52.5682C369.65 53.5057 368.38 54.2642 366.846 54.8438C365.329 55.4063 363.548 55.6875 361.502 55.6875ZM363.906 48.8864C365.763 48.8864 367.374 48.5199 368.738 47.7869C370.102 47.0369 371.15 46.0483 371.883 44.821C372.633 43.5938 373.008 42.2557 373.008 40.8068V36.179C372.718 36.4176 372.224 36.6392 371.525 36.8438C370.843 37.0483 370.076 37.2273 369.224 37.3807C368.371 37.5341 367.528 37.6705 366.692 37.7898C365.857 37.9091 365.133 38.0114 364.519 38.0966C363.138 38.2841 361.903 38.5909 360.812 39.0171C359.721 39.4432 358.86 40.0398 358.229 40.8068C357.599 41.5568 357.283 42.5284 357.283 43.7216C357.283 45.4261 357.906 46.7131 359.15 47.5824C360.394 48.4517 361.979 48.8864 363.906 48.8864ZM400.8 2.53126V54.8949H391.545V2.53126H400.8ZM428.178 54.8949V15.6222H437.433V54.8949H428.178ZM432.831 10.0483C431.365 10.0483 430.104 9.56251 429.047 8.59092C427.99 7.60228 427.462 6.41762 427.462 5.03694C427.462 3.63921 427.99 2.45455 429.047 1.48296C430.104 0.494327 431.365 9.53674e-06 432.831 9.53674e-06C434.314 9.53674e-06 435.575 0.494327 436.615 1.48296C437.672 2.45455 438.2 3.63921 438.2 5.03694C438.2 6.41762 437.672 7.60228 436.615 8.59092C435.575 9.56251 434.314 10.0483 432.831 10.0483ZM456.207 31.8835V54.8949H446.951V15.6222H455.798V22.2955H456.258C457.161 20.0966 458.602 18.3494 460.579 17.054C462.573 15.7585 465.036 15.1108 467.968 15.1108C470.678 15.1108 473.039 15.6904 475.05 16.8494C477.079 18.0085 478.647 19.6875 479.755 21.8864C480.88 24.0852 481.434 26.7529 481.417 29.8892V54.8949H472.161V31.321C472.161 28.696 471.479 26.6421 470.116 25.1591C468.769 23.6761 466.903 22.9347 464.516 22.9347C462.897 22.9347 461.457 23.2926 460.195 24.0085C458.951 24.7074 457.971 25.7216 457.255 27.0511C456.556 28.3807 456.207 29.9915 456.207 31.8835ZM510.437 15.6222V22.7813H487.86V15.6222H510.437ZM493.434 6.21308H502.69V43.0824C502.69 44.3267 502.877 45.2813 503.252 45.946C503.644 46.5938 504.156 47.0369 504.786 47.2756C505.417 47.5142 506.116 47.6335 506.883 47.6335C507.462 47.6335 507.991 47.5909 508.468 47.5057C508.962 47.4205 509.337 47.3438 509.593 47.2756L511.153 54.5114C510.658 54.6818 509.951 54.8693 509.031 55.0739C508.127 55.2784 507.019 55.3977 505.707 55.4318C503.388 55.5 501.3 55.1506 499.442 54.3835C497.585 53.5994 496.11 52.3892 495.019 50.7529C493.945 49.1165 493.417 47.071 493.434 44.6165V6.21308ZM535.142 55.6619C531.205 55.6619 527.804 54.8438 524.94 53.2074C522.094 51.554 519.903 49.2188 518.369 46.2017C516.835 43.1676 516.068 39.5966 516.068 35.4886C516.068 31.4489 516.835 27.9034 518.369 24.8523C519.92 21.7841 522.085 19.3977 524.864 17.6932C527.642 15.9716 530.906 15.1108 534.656 15.1108C537.077 15.1108 539.361 15.5029 541.509 16.2869C543.673 17.054 545.582 18.2472 547.236 19.8665C548.906 21.4858 550.219 23.5483 551.173 26.054C552.128 28.5426 552.605 31.5085 552.605 34.9517V37.7898H520.415V31.5511H543.733C543.716 29.7784 543.332 28.2017 542.582 26.821C541.832 25.4233 540.784 24.3239 539.438 23.5227C538.108 22.7216 536.557 22.321 534.784 22.321C532.892 22.321 531.23 22.7813 529.798 23.7017C528.366 24.6051 527.25 25.7983 526.449 27.2813C525.665 28.7472 525.264 30.358 525.247 32.1136V37.5597C525.247 39.8438 525.665 41.804 526.5 43.4404C527.335 45.0597 528.503 46.304 530.003 47.1733C531.503 48.0256 533.259 48.4517 535.27 48.4517C536.616 48.4517 537.835 48.2642 538.926 47.8892C540.017 47.4972 540.963 46.9261 541.764 46.1761C542.565 45.4261 543.17 44.4972 543.58 43.3892L552.222 44.3608C551.676 46.6449 550.636 48.6392 549.102 50.3438C547.585 52.0313 545.642 53.3438 543.273 54.2813C540.903 55.2017 538.193 55.6619 535.142 55.6619ZM560.435 54.8949V15.6222H569.41V22.1676H569.819C570.535 19.9006 571.762 18.1534 573.501 16.9261C575.256 15.6818 577.259 15.0597 579.509 15.0597C580.021 15.0597 580.592 15.0852 581.222 15.1364C581.87 15.1705 582.407 15.2301 582.833 15.3154V23.8296C582.441 23.6932 581.819 23.5739 580.967 23.4716C580.131 23.3523 579.322 23.2926 578.538 23.2926C576.85 23.2926 575.333 23.6591 573.987 24.3921C572.657 25.108 571.609 26.1051 570.842 27.3835C570.075 28.6619 569.691 30.1364 569.691 31.8068V54.8949H560.435ZM599.58 55.6875C597.092 55.6875 594.85 55.2443 592.856 54.358C590.879 53.4546 589.31 52.125 588.151 50.3693C587.009 48.6136 586.438 46.4489 586.438 43.875C586.438 41.6591 586.847 39.8267 587.665 38.3779C588.484 36.929 589.6 35.7699 591.015 34.9006C592.43 34.0313 594.023 33.375 595.796 32.9318C597.586 32.4716 599.435 32.1392 601.344 31.9347C603.646 31.696 605.512 31.483 606.944 31.2955C608.376 31.0909 609.415 30.7841 610.063 30.375C610.728 29.9489 611.06 29.2926 611.06 28.4063V28.2529C611.06 26.3267 610.489 24.8352 609.347 23.7784C608.205 22.7216 606.56 22.1932 604.413 22.1932C602.146 22.1932 600.347 22.6875 599.018 23.6761C597.705 24.6648 596.819 25.8324 596.359 27.179L587.717 25.9517C588.398 23.5654 589.523 21.571 591.092 19.9688C592.66 18.3494 594.577 17.1392 596.844 16.3381C599.112 15.5199 601.617 15.1108 604.362 15.1108C606.254 15.1108 608.137 15.3324 610.012 15.7756C611.887 16.2188 613.6 16.9517 615.151 17.9744C616.702 18.9801 617.947 20.3523 618.884 22.0909C619.839 23.8296 620.316 26.0029 620.316 28.6108V54.8949H611.418V49.5H611.112C610.549 50.5909 609.756 51.6136 608.734 52.5682C607.728 53.5057 606.458 54.2642 604.924 54.8438C603.407 55.4063 601.626 55.6875 599.58 55.6875ZM601.984 48.8864C603.842 48.8864 605.452 48.5199 606.816 47.7869C608.18 47.0369 609.228 46.0483 609.961 44.821C610.711 43.5938 611.086 42.2557 611.086 40.8068V36.179C610.796 36.4176 610.302 36.6392 609.603 36.8438C608.921 37.0483 608.154 37.2273 607.302 37.3807C606.45 37.5341 605.606 37.6705 604.771 37.7898C603.935 37.9091 603.211 38.0114 602.597 38.0966C601.217 38.2841 599.981 38.5909 598.89 39.0171C597.799 39.4432 596.938 40.0398 596.308 40.8068C595.677 41.5568 595.362 42.5284 595.362 43.7216C595.362 45.4261 595.984 46.7131 597.228 47.5824C598.472 48.4517 600.058 48.8864 601.984 48.8864ZM646.754 55.6619C642.833 55.6619 639.467 54.8011 636.654 53.0796C633.859 51.358 631.702 48.9801 630.185 45.946C628.685 42.8949 627.935 39.3835 627.935 35.4119C627.935 31.4233 628.702 27.9034 630.237 24.8523C631.771 21.7841 633.935 19.3977 636.731 17.6932C639.543 15.9716 642.867 15.1108 646.702 15.1108C649.89 15.1108 652.711 15.6989 655.165 16.875C657.637 18.0341 659.606 19.679 661.072 21.8097C662.538 23.9233 663.373 26.3949 663.577 29.2244H654.731C654.373 27.3324 653.521 25.7557 652.174 24.4943C650.844 23.2159 649.063 22.5767 646.83 22.5767C644.938 22.5767 643.276 23.0881 641.844 24.1108C640.413 25.1165 639.296 26.5654 638.495 28.4574C637.711 30.3494 637.319 32.6165 637.319 35.2585C637.319 37.9347 637.711 40.2358 638.495 42.1619C639.279 44.071 640.379 45.5455 641.793 46.5852C643.225 47.608 644.904 48.1193 646.83 48.1193C648.194 48.1193 649.413 47.8636 650.487 47.3523C651.577 46.8239 652.489 46.0654 653.222 45.0767C653.955 44.0881 654.458 42.8864 654.731 41.4716H663.577C663.356 44.25 662.538 46.7131 661.123 48.8608C659.708 50.9915 657.782 52.6619 655.344 53.8722C652.907 55.0654 650.043 55.6619 646.754 55.6619ZM690.788 15.6222V22.7813H668.212V15.6222H690.788ZM673.786 6.21308H683.041V43.0824C683.041 44.3267 683.229 45.2813 683.604 45.946C683.996 46.5938 684.507 47.0369 685.138 47.2756C685.768 47.5142 686.467 47.6335 687.234 47.6335C687.814 47.6335 688.342 47.5909 688.82 47.5057C689.314 47.4205 689.689 47.3438 689.945 47.2756L691.504 54.5114C691.01 54.6818 690.303 54.8693 689.382 55.0739C688.479 55.2784 687.371 55.3977 686.058 55.4318C683.74 55.5 681.652 55.1506 679.794 54.3835C677.936 53.5994 676.462 52.3892 675.371 50.7529C674.297 49.1165 673.768 47.071 673.786 44.6165V6.21308ZM698.529 54.8949V15.6222H707.785V54.8949H698.529ZM703.183 10.0483C701.717 10.0483 700.455 9.56251 699.398 8.59092C698.342 7.60228 697.813 6.41762 697.813 5.03694C697.813 3.63921 698.342 2.45455 699.398 1.48296C700.455 0.494327 701.717 9.53674e-06 703.183 9.53674e-06C704.665 9.53674e-06 705.927 0.494327 706.967 1.48296C708.023 2.45455 708.552 3.63921 708.552 5.03694C708.552 6.41762 708.023 7.60228 706.967 8.59092C705.927 9.56251 704.665 10.0483 703.183 10.0483ZM734.433 55.6619C730.598 55.6619 727.274 54.8182 724.462 53.1307C721.649 51.4432 719.467 49.0824 717.916 46.0483C716.382 43.0142 715.615 39.4688 715.615 35.4119C715.615 31.3551 716.382 27.8011 717.916 24.75C719.467 21.6989 721.649 19.3296 724.462 17.6421C727.274 15.9546 730.598 15.1108 734.433 15.1108C738.268 15.1108 741.592 15.9546 744.405 17.6421C747.217 19.3296 749.391 21.6989 750.925 24.75C752.476 27.8011 753.251 31.3551 753.251 35.4119C753.251 39.4688 752.476 43.0142 750.925 46.0483C749.391 49.0824 747.217 51.4432 744.405 53.1307C741.592 54.8182 738.268 55.6619 734.433 55.6619ZM734.484 48.2472C736.564 48.2472 738.303 47.6761 739.7 46.5341C741.098 45.375 742.138 43.8239 742.82 41.8807C743.518 39.9375 743.868 37.7727 743.868 35.3864C743.868 32.983 743.518 30.8097 742.82 28.8665C742.138 26.9063 741.098 25.3466 739.7 24.1875C738.303 23.0284 736.564 22.4489 734.484 22.4489C732.354 22.4489 730.581 23.0284 729.166 24.1875C727.768 25.3466 726.72 26.9063 726.021 28.8665C725.339 30.8097 724.999 32.983 724.999 35.3864C724.999 37.7727 725.339 39.9375 726.021 41.8807C726.72 43.8239 727.768 45.375 729.166 46.5341C730.581 47.6761 732.354 48.2472 734.484 48.2472ZM770.363 31.8835V54.8949H761.107V15.6222H769.954V22.2955H770.414C771.317 20.0966 772.758 18.3494 774.735 17.054C776.729 15.7585 779.192 15.1108 782.124 15.1108C784.835 15.1108 787.195 15.6904 789.207 16.8494C791.235 18.0085 792.803 19.6875 793.911 21.8864C795.036 24.0852 795.59 26.7529 795.573 29.8892V54.8949H786.317V31.321C786.317 28.696 785.636 26.6421 784.272 25.1591C782.925 23.6761 781.059 22.9347 778.673 22.9347C777.053 22.9347 775.613 23.2926 774.352 24.0085C773.107 24.7074 772.127 25.7216 771.411 27.0511C770.712 28.3807 770.363 29.9915 770.363 31.8835ZM11.4545 132.895L0.357955 93.6222H9.79261L16.696 121.236H17.054L24.1108 93.6222H33.4432L40.5 121.082H40.8835L47.6847 93.6222H57.1449L46.0227 132.895H36.3835L29.0199 106.355H28.483L21.1193 132.895H11.4545ZM74.9084 133.688C72.4197 133.688 70.1783 133.244 68.1839 132.358C66.2067 131.455 64.6385 130.125 63.4794 128.369C62.3374 126.614 61.7663 124.449 61.7663 121.875C61.7663 119.659 62.1754 117.827 62.9936 116.378C63.8118 114.929 64.9283 113.77 66.343 112.901C67.7578 112.031 69.3516 111.375 71.1243 110.932C72.9141 110.472 74.7635 110.139 76.6726 109.935C78.9737 109.696 80.8402 109.483 82.272 109.295C83.7038 109.091 84.7436 108.784 85.3913 108.375C86.0561 107.949 86.3885 107.293 86.3885 106.406V106.253C86.3885 104.327 85.8175 102.835 84.6754 101.778C83.5334 100.722 81.8885 100.193 79.7408 100.193C77.4737 100.193 75.6754 100.688 74.3459 101.676C73.0334 102.665 72.147 103.832 71.6868 105.179L63.0447 103.952C63.7266 101.565 64.8516 99.571 66.4197 97.9688C67.9879 96.3494 69.9055 95.1392 72.1726 94.3381C74.4396 93.5199 76.9453 93.1108 79.6896 93.1108C81.5817 93.1108 83.4652 93.3324 85.3402 93.7756C87.2152 94.2188 88.9283 94.9517 90.4794 95.9744C92.0305 96.9801 93.2749 98.3523 94.2124 100.091C95.1669 101.83 95.6442 104.003 95.6442 106.611V132.895H86.7465V127.5H86.4396C85.8771 128.591 85.0845 129.614 84.0618 130.568C83.0561 131.506 81.7862 132.264 80.2521 132.844C78.7351 133.406 76.9538 133.688 74.9084 133.688ZM77.3118 126.886C79.1697 126.886 80.7805 126.52 82.1442 125.787C83.5078 125.037 84.5561 124.048 85.2891 122.821C86.0391 121.594 86.4141 120.256 86.4141 118.807V114.179C86.1243 114.418 85.63 114.639 84.9311 114.844C84.2493 115.048 83.4822 115.227 82.63 115.381C81.7777 115.534 80.9339 115.67 80.0987 115.79C79.2635 115.909 78.5391 116.011 77.9254 116.097C76.5447 116.284 75.3089 116.591 74.218 117.017C73.1271 117.443 72.2663 118.04 71.6357 118.807C71.005 119.557 70.6896 120.528 70.6896 121.722C70.6896 123.426 71.3118 124.713 72.5561 125.582C73.8004 126.452 75.3857 126.886 77.3118 126.886ZM109.298 147.622C108.036 147.622 106.869 147.52 105.795 147.315C104.738 147.128 103.894 146.906 103.263 146.651L105.411 139.44C106.758 139.832 107.96 140.02 109.016 140.003C110.073 139.986 111.002 139.653 111.803 139.006C112.621 138.375 113.312 137.318 113.874 135.835L114.667 133.713L100.425 93.6222H110.244L119.295 123.281H119.704L128.781 93.6222H138.624L122.9 137.651C122.167 139.73 121.195 141.511 119.985 142.994C118.775 144.494 117.292 145.636 115.536 146.42C113.798 147.222 111.718 147.622 109.298 147.622ZM176.069 104.003L167.631 104.923C167.393 104.071 166.975 103.27 166.379 102.52C165.799 101.77 165.015 101.165 164.026 100.705C163.038 100.244 161.827 100.014 160.396 100.014C158.469 100.014 156.85 100.432 155.538 101.267C154.242 102.102 153.603 103.185 153.62 104.514C153.603 105.656 154.021 106.585 154.873 107.301C155.742 108.017 157.174 108.605 159.168 109.065L165.867 110.497C169.583 111.298 172.344 112.568 174.151 114.307C175.975 116.045 176.896 118.321 176.913 121.134C176.896 123.605 176.171 125.787 174.739 127.679C173.325 129.554 171.356 131.02 168.833 132.077C166.31 133.134 163.413 133.662 160.14 133.662C155.333 133.662 151.464 132.656 148.532 130.645C145.6 128.616 143.853 125.795 143.29 122.182L152.316 121.313C152.725 123.085 153.594 124.423 154.924 125.327C156.254 126.23 157.984 126.682 160.114 126.682C162.313 126.682 164.077 126.23 165.407 125.327C166.754 124.423 167.427 123.307 167.427 121.977C167.427 120.852 166.992 119.923 166.123 119.19C165.271 118.457 163.941 117.895 162.134 117.503L155.435 116.097C151.668 115.313 148.881 113.991 147.075 112.134C145.268 110.259 144.373 107.889 144.39 105.026C144.373 102.605 145.029 100.509 146.359 98.7358C147.705 96.946 149.572 95.5654 151.958 94.5938C154.362 93.6051 157.131 93.1108 160.268 93.1108C164.87 93.1108 168.492 94.0909 171.134 96.0511C173.793 98.0114 175.438 100.662 176.069 104.003Z" fill="#00825A"/>
<path d="M17.9233 211.585C14.8381 211.585 12.0767 210.793 9.6392 209.207C7.2017 207.622 5.27557 205.321 3.8608 202.304C2.44602 199.287 1.73864 195.622 1.73864 191.31C1.73864 186.946 2.45455 183.264 3.88636 180.264C5.33523 177.247 7.28693 174.972 9.74148 173.438C12.196 171.886 14.9318 171.111 17.9489 171.111C20.25 171.111 22.142 171.503 23.625 172.287C25.108 173.054 26.2841 173.983 27.1534 175.074C28.0227 176.148 28.696 177.162 29.1733 178.116H29.5568V158.531H38.8381V210.895H29.7358V204.707H29.1733C28.696 205.662 28.0057 206.676 27.1023 207.75C26.1989 208.807 25.0057 209.71 23.5227 210.46C22.0398 211.21 20.1733 211.585 17.9233 211.585ZM20.5057 203.991C22.4659 203.991 24.1364 203.463 25.517 202.406C26.8977 201.332 27.946 199.841 28.6619 197.932C29.3778 196.023 29.7358 193.798 29.7358 191.259C29.7358 188.719 29.3778 186.511 28.6619 184.636C27.9631 182.761 26.9233 181.304 25.5426 180.264C24.179 179.224 22.5 178.705 20.5057 178.705C18.4432 178.705 16.7216 179.241 15.3409 180.315C13.9602 181.389 12.9205 182.872 12.2216 184.764C11.5227 186.656 11.1733 188.821 11.1733 191.259C11.1733 193.713 11.5227 195.903 12.2216 197.83C12.9375 199.739 13.9858 201.247 15.3665 202.355C16.7642 203.446 18.4773 203.991 20.5057 203.991ZM48.701 210.895V171.622H57.9567V210.895H48.701ZM53.3544 166.048C51.8885 166.048 50.6271 165.563 49.5703 164.591C48.5135 163.602 47.9851 162.418 47.9851 161.037C47.9851 159.639 48.5135 158.455 49.5703 157.483C50.6271 156.494 51.8885 156 53.3544 156C54.8374 156 56.0987 156.494 57.1385 157.483C58.1953 158.455 58.7237 159.639 58.7237 161.037C58.7237 162.418 58.1953 163.602 57.1385 164.591C56.0987 165.563 54.8374 166.048 53.3544 166.048ZM87.3665 171.622V178.781H64.1506V171.622H87.3665ZM69.9545 210.895V167.915C69.9545 165.273 70.5 163.074 71.5909 161.318C72.6989 159.563 74.1818 158.25 76.0398 157.381C77.8977 156.511 79.9602 156.077 82.2273 156.077C83.8295 156.077 85.2528 156.205 86.4972 156.46C87.7415 156.716 88.6619 156.946 89.2585 157.151L87.4176 164.31C87.0256 164.19 86.5312 164.071 85.9347 163.952C85.3381 163.815 84.6733 163.747 83.9403 163.747C82.2188 163.747 81 164.165 80.2841 165C79.5852 165.818 79.2358 166.994 79.2358 168.528V210.895H69.9545ZM114.507 171.622V178.781H91.2912V171.622H114.507ZM97.0952 210.895V167.915C97.0952 165.273 97.6406 163.074 98.7315 161.318C99.8395 159.563 101.322 158.25 103.18 157.381C105.038 156.511 107.101 156.077 109.368 156.077C110.97 156.077 112.393 156.205 113.638 156.46C114.882 156.716 115.803 156.946 116.399 157.151L114.558 164.31C114.166 164.19 113.672 164.071 113.075 163.952C112.479 163.815 111.814 163.747 111.081 163.747C109.359 163.747 108.141 164.165 107.425 165C106.726 165.818 106.376 166.994 106.376 168.528V210.895H97.0952ZM137.665 211.662C133.728 211.662 130.327 210.844 127.464 209.207C124.617 207.554 122.427 205.219 120.893 202.202C119.359 199.168 118.592 195.597 118.592 191.489C118.592 187.449 119.359 183.903 120.893 180.852C122.444 177.784 124.609 175.398 127.387 173.693C130.165 171.972 133.43 171.111 137.18 171.111C139.6 171.111 141.884 171.503 144.032 172.287C146.197 173.054 148.106 174.247 149.759 175.866C151.43 177.486 152.742 179.548 153.697 182.054C154.651 184.543 155.129 187.509 155.129 190.952V193.79H122.938V187.551H146.256C146.239 185.778 145.856 184.202 145.106 182.821C144.356 181.423 143.308 180.324 141.961 179.523C140.631 178.722 139.08 178.321 137.308 178.321C135.415 178.321 133.754 178.781 132.322 179.702C130.89 180.605 129.773 181.798 128.972 183.281C128.188 184.747 127.788 186.358 127.771 188.114V193.56C127.771 195.844 128.188 197.804 129.023 199.44C129.859 201.06 131.026 202.304 132.526 203.173C134.026 204.026 135.782 204.452 137.793 204.452C139.14 204.452 140.359 204.264 141.45 203.889C142.54 203.497 143.487 202.926 144.288 202.176C145.089 201.426 145.694 200.497 146.103 199.389L154.745 200.361C154.2 202.645 153.16 204.639 151.626 206.344C150.109 208.031 148.165 209.344 145.796 210.281C143.427 211.202 140.717 211.662 137.665 211.662ZM162.959 210.895V171.622H171.933V178.168H172.342C173.058 175.901 174.286 174.153 176.024 172.926C177.78 171.682 179.783 171.06 182.033 171.06C182.544 171.06 183.115 171.085 183.746 171.136C184.393 171.17 184.93 171.23 185.357 171.315V179.83C184.964 179.693 184.342 179.574 183.49 179.472C182.655 179.352 181.845 179.293 181.061 179.293C179.374 179.293 177.857 179.659 176.51 180.392C175.18 181.108 174.132 182.105 173.365 183.384C172.598 184.662 172.214 186.136 172.214 187.807V210.895H162.959ZM207.275 211.662C203.337 211.662 199.937 210.844 197.073 209.207C194.227 207.554 192.036 205.219 190.502 202.202C188.968 199.168 188.201 195.597 188.201 191.489C188.201 187.449 188.968 183.903 190.502 180.852C192.053 177.784 194.218 175.398 196.996 173.693C199.775 171.972 203.039 171.111 206.789 171.111C209.21 171.111 211.494 171.503 213.641 172.287C215.806 173.054 217.715 174.247 219.369 175.866C221.039 177.486 222.352 179.548 223.306 182.054C224.261 184.543 224.738 187.509 224.738 190.952V193.79H192.548V187.551H215.866C215.849 185.778 215.465 184.202 214.715 182.821C213.965 181.423 212.917 180.324 211.57 179.523C210.241 178.722 208.69 178.321 206.917 178.321C205.025 178.321 203.363 178.781 201.931 179.702C200.499 180.605 199.383 181.798 198.582 183.281C197.798 184.747 197.397 186.358 197.38 188.114V193.56C197.38 195.844 197.798 197.804 198.633 199.44C199.468 201.06 200.636 202.304 202.136 203.173C203.636 204.026 205.391 204.452 207.403 204.452C208.749 204.452 209.968 204.264 211.059 203.889C212.15 203.497 213.096 202.926 213.897 202.176C214.698 201.426 215.303 200.497 215.712 199.389L224.354 200.361C223.809 202.645 222.769 204.639 221.235 206.344C219.718 208.031 217.775 209.344 215.406 210.281C213.036 211.202 210.326 211.662 207.275 211.662ZM241.824 187.884V210.895H232.568V171.622H241.415V178.295H241.875C242.778 176.097 244.219 174.349 246.196 173.054C248.19 171.759 250.653 171.111 253.585 171.111C256.295 171.111 258.656 171.69 260.668 172.849C262.696 174.009 264.264 175.688 265.372 177.886C266.497 180.085 267.051 182.753 267.034 185.889V210.895H257.778V187.321C257.778 184.696 257.097 182.642 255.733 181.159C254.386 179.676 252.52 178.935 250.134 178.935C248.514 178.935 247.074 179.293 245.812 180.009C244.568 180.707 243.588 181.722 242.872 183.051C242.173 184.381 241.824 185.991 241.824 187.884ZM296.054 171.622V178.781H273.477V171.622H296.054ZM279.051 162.213H288.307V199.082C288.307 200.327 288.494 201.281 288.869 201.946C289.261 202.594 289.773 203.037 290.403 203.276C291.034 203.514 291.733 203.634 292.5 203.634C293.08 203.634 293.608 203.591 294.085 203.506C294.58 203.42 294.955 203.344 295.21 203.276L296.77 210.511C296.276 210.682 295.568 210.869 294.648 211.074C293.744 211.278 292.636 211.398 291.324 211.432C289.006 211.5 286.918 211.151 285.06 210.384C283.202 209.599 281.727 208.389 280.636 206.753C279.563 205.116 279.034 203.071 279.051 200.616V162.213ZM352.694 182.003L344.256 182.923C344.018 182.071 343.6 181.27 343.004 180.52C342.424 179.77 341.64 179.165 340.651 178.705C339.663 178.244 338.452 178.014 337.021 178.014C335.094 178.014 333.475 178.432 332.163 179.267C330.867 180.102 330.228 181.185 330.245 182.514C330.228 183.656 330.646 184.585 331.498 185.301C332.367 186.017 333.799 186.605 335.793 187.065L342.492 188.497C346.208 189.298 348.969 190.568 350.776 192.307C352.6 194.045 353.521 196.321 353.538 199.134C353.521 201.605 352.796 203.787 351.364 205.679C349.95 207.554 347.981 209.02 345.458 210.077C342.935 211.134 340.038 211.662 336.765 211.662C331.958 211.662 328.089 210.656 325.157 208.645C322.225 206.616 320.478 203.795 319.915 200.182L328.941 199.313C329.35 201.085 330.219 202.423 331.549 203.327C332.879 204.23 334.609 204.682 336.739 204.682C338.938 204.682 340.702 204.23 342.032 203.327C343.379 202.423 344.052 201.307 344.052 199.977C344.052 198.852 343.617 197.923 342.748 197.19C341.896 196.457 340.566 195.895 338.759 195.503L332.06 194.097C328.293 193.313 325.506 191.991 323.7 190.134C321.893 188.259 320.998 185.889 321.015 183.026C320.998 180.605 321.654 178.509 322.984 176.736C324.33 174.946 326.197 173.565 328.583 172.594C330.987 171.605 333.756 171.111 336.893 171.111C341.495 171.111 345.117 172.091 347.759 174.051C350.418 176.011 352.063 178.662 352.694 182.003ZM380.781 171.622V178.781H358.204V171.622H380.781ZM363.778 162.213H373.033V199.082C373.033 200.327 373.221 201.281 373.596 201.946C373.988 202.594 374.499 203.037 375.13 203.276C375.761 203.514 376.46 203.634 377.227 203.634C377.806 203.634 378.335 203.591 378.812 203.506C379.306 203.42 379.681 203.344 379.937 203.276L381.496 210.511C381.002 210.682 380.295 210.869 379.374 211.074C378.471 211.278 377.363 211.398 376.05 211.432C373.732 211.5 371.644 211.151 369.786 210.384C367.928 209.599 366.454 208.389 365.363 206.753C364.289 205.116 363.761 203.071 363.778 200.616V162.213ZM399.822 211.688C397.334 211.688 395.092 211.244 393.098 210.358C391.121 209.455 389.553 208.125 388.393 206.369C387.251 204.614 386.68 202.449 386.68 199.875C386.68 197.659 387.089 195.827 387.908 194.378C388.726 192.929 389.842 191.77 391.257 190.901C392.672 190.031 394.266 189.375 396.038 188.932C397.828 188.472 399.678 188.139 401.587 187.935C403.888 187.696 405.754 187.483 407.186 187.295C408.618 187.091 409.658 186.784 410.305 186.375C410.97 185.949 411.303 185.293 411.303 184.406V184.253C411.303 182.327 410.732 180.835 409.589 179.778C408.447 178.722 406.803 178.193 404.655 178.193C402.388 178.193 400.589 178.688 399.26 179.676C397.947 180.665 397.061 181.832 396.601 183.179L387.959 181.952C388.641 179.565 389.766 177.571 391.334 175.969C392.902 174.349 394.82 173.139 397.087 172.338C399.354 171.52 401.859 171.111 404.604 171.111C406.496 171.111 408.379 171.332 410.254 171.776C412.129 172.219 413.842 172.952 415.393 173.974C416.945 174.98 418.189 176.352 419.126 178.091C420.081 179.83 420.558 182.003 420.558 184.611V210.895H411.661V205.5H411.354C410.791 206.591 409.999 207.614 408.976 208.568C407.97 209.506 406.7 210.264 405.166 210.844C403.649 211.406 401.868 211.688 399.822 211.688ZM402.226 204.886C404.084 204.886 405.695 204.52 407.058 203.787C408.422 203.037 409.47 202.048 410.203 200.821C410.953 199.594 411.328 198.256 411.328 196.807V192.179C411.038 192.418 410.544 192.639 409.845 192.844C409.163 193.048 408.396 193.227 407.544 193.381C406.692 193.534 405.848 193.67 405.013 193.79C404.178 193.909 403.453 194.011 402.839 194.097C401.459 194.284 400.223 194.591 399.132 195.017C398.041 195.443 397.18 196.04 396.55 196.807C395.919 197.557 395.604 198.528 395.604 199.722C395.604 201.426 396.226 202.713 397.47 203.582C398.714 204.452 400.3 204.886 402.226 204.886ZM446.945 226.44C443.621 226.44 440.766 225.989 438.379 225.085C435.993 224.199 434.075 223.006 432.626 221.506C431.178 220.006 430.172 218.344 429.609 216.52L437.945 214.5C438.32 215.267 438.865 216.026 439.581 216.776C440.297 217.543 441.26 218.173 442.47 218.668C443.697 219.179 445.24 219.435 447.098 219.435C449.723 219.435 451.896 218.795 453.618 217.517C455.339 216.256 456.2 214.176 456.2 211.278V203.838H455.74C455.263 204.793 454.564 205.773 453.643 206.778C452.74 207.784 451.538 208.628 450.038 209.31C448.555 209.991 446.689 210.332 444.439 210.332C441.422 210.332 438.686 209.625 436.232 208.21C433.794 206.778 431.851 204.648 430.402 201.818C428.97 198.972 428.254 195.409 428.254 191.131C428.254 186.818 428.97 183.179 430.402 180.213C431.851 177.23 433.803 174.972 436.257 173.438C438.712 171.886 441.447 171.111 444.464 171.111C446.766 171.111 448.658 171.503 450.141 172.287C451.641 173.054 452.834 173.983 453.72 175.074C454.607 176.148 455.28 177.162 455.74 178.116H456.251V171.622H465.379V211.534C465.379 214.892 464.578 217.67 462.976 219.869C461.374 222.068 459.183 223.713 456.405 224.804C453.626 225.895 450.473 226.44 446.945 226.44ZM447.021 203.071C448.982 203.071 450.652 202.594 452.033 201.639C453.413 200.685 454.462 199.313 455.178 197.523C455.893 195.733 456.251 193.585 456.251 191.08C456.251 188.608 455.893 186.443 455.178 184.585C454.479 182.727 453.439 181.287 452.058 180.264C450.695 179.224 449.016 178.705 447.021 178.705C444.959 178.705 443.237 179.241 441.857 180.315C440.476 181.389 439.436 182.864 438.737 184.739C438.038 186.597 437.689 188.71 437.689 191.08C437.689 193.483 438.038 195.588 438.737 197.395C439.453 199.185 440.501 200.582 441.882 201.588C443.28 202.577 444.993 203.071 447.021 203.071ZM492.251 211.662C488.314 211.662 484.913 210.844 482.05 209.207C479.203 207.554 477.013 205.219 475.479 202.202C473.945 199.168 473.178 195.597 473.178 191.489C473.178 187.449 473.945 183.903 475.479 180.852C477.03 177.784 479.195 175.398 481.973 173.693C484.751 171.972 488.016 171.111 491.766 171.111C494.186 171.111 496.47 171.503 498.618 172.287C500.783 173.054 502.692 174.247 504.345 175.866C506.016 177.486 507.328 179.548 508.283 182.054C509.237 184.543 509.714 187.509 509.714 190.952V193.79H477.524V187.551H500.842C500.825 185.778 500.442 184.202 499.692 182.821C498.942 181.423 497.893 180.324 496.547 179.523C495.217 178.722 493.666 178.321 491.893 178.321C490.001 178.321 488.339 178.781 486.908 179.702C485.476 180.605 484.359 181.798 483.558 183.281C482.774 184.747 482.374 186.358 482.357 188.114V193.56C482.357 195.844 482.774 197.804 483.609 199.44C484.445 201.06 485.612 202.304 487.112 203.173C488.612 204.026 490.368 204.452 492.379 204.452C493.726 204.452 494.945 204.264 496.036 203.889C497.126 203.497 498.072 202.926 498.874 202.176C499.675 201.426 500.28 200.497 500.689 199.389L509.331 200.361C508.786 202.645 507.746 204.639 506.212 206.344C504.695 208.031 502.751 209.344 500.382 210.281C498.013 211.202 495.303 211.662 492.251 211.662ZM548.585 182.003L540.147 182.923C539.908 182.071 539.491 181.27 538.894 180.52C538.315 179.77 537.531 179.165 536.542 178.705C535.553 178.244 534.343 178.014 532.911 178.014C530.985 178.014 529.366 178.432 528.053 179.267C526.758 180.102 526.119 181.185 526.136 182.514C526.119 183.656 526.536 184.585 527.388 185.301C528.258 186.017 529.69 186.605 531.684 187.065L538.383 188.497C542.099 189.298 544.86 190.568 546.667 192.307C548.491 194.045 549.411 196.321 549.428 199.134C549.411 201.605 548.687 203.787 547.255 205.679C545.84 207.554 543.871 209.02 541.349 210.077C538.826 211.134 535.928 211.662 532.656 211.662C527.849 211.662 523.979 210.656 521.048 208.645C518.116 206.616 516.369 203.795 515.806 200.182L524.832 199.313C525.241 201.085 526.11 202.423 527.44 203.327C528.769 204.23 530.499 204.682 532.63 204.682C534.829 204.682 536.593 204.23 537.923 203.327C539.269 202.423 539.942 201.307 539.942 199.977C539.942 198.852 539.508 197.923 538.638 197.19C537.786 196.457 536.457 195.895 534.65 195.503L527.951 194.097C524.184 193.313 521.397 191.991 519.59 190.134C517.783 188.259 516.888 185.889 516.906 183.026C516.888 180.605 517.545 178.509 518.874 176.736C520.221 174.946 522.087 173.565 524.474 172.594C526.877 171.605 529.647 171.111 532.783 171.111C537.386 171.111 541.008 172.091 543.65 174.051C546.309 176.011 547.954 178.662 548.585 182.003ZM592.05 211.662C588.215 211.662 584.891 210.818 582.079 209.131C579.266 207.443 577.085 205.082 575.533 202.048C573.999 199.014 573.232 195.469 573.232 191.412C573.232 187.355 573.999 183.801 575.533 180.75C577.085 177.699 579.266 175.33 582.079 173.642C584.891 171.955 588.215 171.111 592.05 171.111C595.886 171.111 599.21 171.955 602.022 173.642C604.835 175.33 607.008 177.699 608.542 180.75C610.093 183.801 610.869 187.355 610.869 191.412C610.869 195.469 610.093 199.014 608.542 202.048C607.008 205.082 604.835 207.443 602.022 209.131C599.21 210.818 595.886 211.662 592.05 211.662ZM592.102 204.247C594.181 204.247 595.92 203.676 597.317 202.534C598.715 201.375 599.755 199.824 600.437 197.881C601.136 195.938 601.485 193.773 601.485 191.386C601.485 188.983 601.136 186.81 600.437 184.866C599.755 182.906 598.715 181.347 597.317 180.188C595.92 179.028 594.181 178.449 592.102 178.449C589.971 178.449 588.198 179.028 586.783 180.188C585.386 181.347 584.337 182.906 583.638 184.866C582.957 186.81 582.616 188.983 582.616 191.386C582.616 193.773 582.957 195.938 583.638 197.881C584.337 199.824 585.386 201.375 586.783 202.534C588.198 203.676 589.971 204.247 592.102 204.247ZM638.616 171.622V178.781H615.401V171.622H638.616ZM621.205 210.895V167.915C621.205 165.273 621.75 163.074 622.841 161.318C623.949 159.563 625.432 158.25 627.29 157.381C629.148 156.511 631.21 156.077 633.477 156.077C635.08 156.077 636.503 156.205 637.747 156.46C638.991 156.716 639.912 156.946 640.509 157.151L638.668 164.31C638.276 164.19 637.781 164.071 637.185 163.952C636.588 163.815 635.923 163.747 635.19 163.747C633.469 163.747 632.25 164.165 631.534 165C630.835 165.818 630.486 166.994 630.486 168.528V210.895H621.205ZM17.9233 289.585C14.8381 289.585 12.0767 288.793 9.6392 287.207C7.2017 285.622 5.27557 283.321 3.8608 280.304C2.44602 277.287 1.73864 273.622 1.73864 269.31C1.73864 264.946 2.45455 261.264 3.88636 258.264C5.33523 255.247 7.28693 252.972 9.74148 251.438C12.196 249.886 14.9318 249.111 17.9489 249.111C20.25 249.111 22.142 249.503 23.625 250.287C25.108 251.054 26.2841 251.983 27.1534 253.074C28.0227 254.148 28.696 255.162 29.1733 256.116H29.5568V236.531H38.8381V288.895H29.7358V282.707H29.1733C28.696 283.662 28.0057 284.676 27.1023 285.75C26.1989 286.807 25.0057 287.71 23.5227 288.46C22.0398 289.21 20.1733 289.585 17.9233 289.585ZM20.5057 281.991C22.4659 281.991 24.1364 281.463 25.517 280.406C26.8977 279.332 27.946 277.841 28.6619 275.932C29.3778 274.023 29.7358 271.798 29.7358 269.259C29.7358 266.719 29.3778 264.511 28.6619 262.636C27.9631 260.761 26.9233 259.304 25.5426 258.264C24.179 257.224 22.5 256.705 20.5057 256.705C18.4432 256.705 16.7216 257.241 15.3409 258.315C13.9602 259.389 12.9205 260.872 12.2216 262.764C11.5227 264.656 11.1733 266.821 11.1733 269.259C11.1733 271.713 11.5227 273.903 12.2216 275.83C12.9375 277.739 13.9858 279.247 15.3665 280.355C16.7642 281.446 18.4773 281.991 20.5057 281.991ZM66.0874 289.662C62.1499 289.662 58.7493 288.844 55.8857 287.207C53.0391 285.554 50.8487 283.219 49.3146 280.202C47.7805 277.168 47.0135 273.597 47.0135 269.489C47.0135 265.449 47.7805 261.903 49.3146 258.852C50.8658 255.784 53.0305 253.398 55.8089 251.693C58.5874 249.972 61.8516 249.111 65.6016 249.111C68.022 249.111 70.3061 249.503 72.4538 250.287C74.6186 251.054 76.5277 252.247 78.1811 253.866C79.8516 255.486 81.1641 257.548 82.1186 260.054C83.0732 262.543 83.5504 265.509 83.5504 268.952V271.79H51.3601V265.551H74.6783C74.6612 263.778 74.2777 262.202 73.5277 260.821C72.7777 259.423 71.7294 258.324 70.3828 257.523C69.0533 256.722 67.5021 256.321 65.7294 256.321C63.8374 256.321 62.1754 256.781 60.7436 257.702C59.3118 258.605 58.1953 259.798 57.3942 261.281C56.6101 262.747 56.2095 264.358 56.1925 266.114V271.56C56.1925 273.844 56.6101 275.804 57.4453 277.44C58.2805 279.06 59.4482 280.304 60.9482 281.173C62.4482 282.026 64.2038 282.452 66.2152 282.452C67.5618 282.452 68.7805 282.264 69.8715 281.889C70.9624 281.497 71.9084 280.926 72.7095 280.176C73.5107 279.426 74.1158 278.497 74.5249 277.389L83.1669 278.361C82.6214 280.645 81.5817 282.639 80.0476 284.344C78.5305 286.031 76.5874 287.344 74.218 288.281C71.8487 289.202 69.1385 289.662 66.0874 289.662ZM91.3807 288.895V249.622H100.227V256.295H100.688C101.506 254.045 102.861 252.29 104.753 251.028C106.645 249.75 108.903 249.111 111.528 249.111C114.188 249.111 116.429 249.759 118.253 251.054C120.094 252.332 121.389 254.08 122.139 256.295H122.548C123.418 254.114 124.884 252.375 126.946 251.08C129.026 249.767 131.489 249.111 134.335 249.111C137.949 249.111 140.898 250.253 143.182 252.537C145.466 254.821 146.608 258.153 146.608 262.534V288.895H137.327V263.966C137.327 261.528 136.679 259.747 135.384 258.622C134.088 257.48 132.503 256.909 130.628 256.909C128.395 256.909 126.648 257.608 125.386 259.006C124.142 260.386 123.52 262.185 123.52 264.401V288.895H114.443V263.582C114.443 261.554 113.83 259.935 112.602 258.724C111.392 257.514 109.807 256.909 107.847 256.909C106.517 256.909 105.307 257.25 104.216 257.932C103.125 258.597 102.256 259.543 101.608 260.77C100.96 261.98 100.636 263.395 100.636 265.014V288.895H91.3807ZM173.384 289.662C169.447 289.662 166.046 288.844 163.183 287.207C160.336 285.554 158.146 283.219 156.612 280.202C155.077 277.168 154.31 273.597 154.31 269.489C154.31 265.449 155.077 261.903 156.612 258.852C158.163 255.784 160.327 253.398 163.106 251.693C165.884 249.972 169.148 249.111 172.898 249.111C175.319 249.111 177.603 249.503 179.751 250.287C181.915 251.054 183.825 252.247 185.478 253.866C187.148 255.486 188.461 257.548 189.415 260.054C190.37 262.543 190.847 265.509 190.847 268.952V271.79H158.657V265.551H181.975C181.958 263.778 181.575 262.202 180.825 260.821C180.075 259.423 179.026 258.324 177.68 257.523C176.35 256.722 174.799 256.321 173.026 256.321C171.134 256.321 169.472 256.781 168.04 257.702C166.609 258.605 165.492 259.798 164.691 261.281C163.907 262.747 163.506 264.358 163.489 266.114V271.56C163.489 273.844 163.907 275.804 164.742 277.44C165.577 279.06 166.745 280.304 168.245 281.173C169.745 282.026 171.501 282.452 173.512 282.452C174.859 282.452 176.077 282.264 177.168 281.889C178.259 281.497 179.205 280.926 180.006 280.176C180.808 279.426 181.413 278.497 181.822 277.389L190.464 278.361C189.918 280.645 188.879 282.639 187.344 284.344C185.827 286.031 183.884 287.344 181.515 288.281C179.146 289.202 176.435 289.662 173.384 289.662ZM207.933 265.884V288.895H198.678V249.622H207.524V256.295H207.984C208.888 254.097 210.328 252.349 212.305 251.054C214.3 249.759 216.763 249.111 219.695 249.111C222.405 249.111 224.766 249.69 226.777 250.849C228.805 252.009 230.374 253.688 231.482 255.886C232.607 258.085 233.161 260.753 233.143 263.889V288.895H223.888V265.321C223.888 262.696 223.206 260.642 221.842 259.159C220.496 257.676 218.629 256.935 216.243 256.935C214.624 256.935 213.183 257.293 211.922 258.009C210.678 258.707 209.697 259.722 208.982 261.051C208.283 262.381 207.933 263.991 207.933 265.884ZM262.163 249.622V256.781H239.587V249.622H262.163ZM245.161 240.213H254.416V277.082C254.416 278.327 254.604 279.281 254.979 279.946C255.371 280.594 255.882 281.037 256.513 281.276C257.143 281.514 257.842 281.634 258.609 281.634C259.189 281.634 259.717 281.591 260.195 281.506C260.689 281.42 261.064 281.344 261.32 281.276L262.879 288.511C262.385 288.682 261.678 288.869 260.757 289.074C259.854 289.278 258.746 289.398 257.433 289.432C255.115 289.5 253.027 289.151 251.169 288.384C249.311 287.599 247.837 286.389 246.746 284.753C245.672 283.116 245.143 281.071 245.161 278.616V240.213ZM269.904 288.895V249.622H279.16V288.895H269.904ZM274.558 244.048C273.092 244.048 271.83 243.563 270.773 242.591C269.717 241.602 269.188 240.418 269.188 239.037C269.188 237.639 269.717 236.455 270.773 235.483C271.83 234.494 273.092 234 274.558 234C276.04 234 277.302 234.494 278.342 235.483C279.398 236.455 279.927 237.639 279.927 239.037C279.927 240.418 279.398 241.602 278.342 242.591C277.302 243.563 276.04 244.048 274.558 244.048ZM299.979 289.688C297.49 289.688 295.249 289.244 293.254 288.358C291.277 287.455 289.709 286.125 288.55 284.369C287.408 282.614 286.837 280.449 286.837 277.875C286.837 275.659 287.246 273.827 288.064 272.378C288.882 270.929 289.999 269.77 291.413 268.901C292.828 268.031 294.422 267.375 296.195 266.932C297.984 266.472 299.834 266.139 301.743 265.935C304.044 265.696 305.911 265.483 307.342 265.295C308.774 265.091 309.814 264.784 310.462 264.375C311.126 263.949 311.459 263.293 311.459 262.406V262.253C311.459 260.327 310.888 258.835 309.746 257.778C308.604 256.722 306.959 256.193 304.811 256.193C302.544 256.193 300.746 256.688 299.416 257.676C298.104 258.665 297.217 259.832 296.757 261.179L288.115 259.952C288.797 257.565 289.922 255.571 291.49 253.969C293.058 252.349 294.976 251.139 297.243 250.338C299.51 249.52 302.016 249.111 304.76 249.111C306.652 249.111 308.536 249.332 310.411 249.776C312.286 250.219 313.999 250.952 315.55 251.974C317.101 252.98 318.345 254.352 319.283 256.091C320.237 257.83 320.714 260.003 320.714 262.611V288.895H311.817V283.5H311.51C310.947 284.591 310.155 285.614 309.132 286.568C308.126 287.506 306.857 288.264 305.322 288.844C303.805 289.406 302.024 289.688 299.979 289.688ZM302.382 282.886C304.24 282.886 305.851 282.52 307.214 281.787C308.578 281.037 309.626 280.048 310.359 278.821C311.109 277.594 311.484 276.256 311.484 274.807V270.179C311.195 270.418 310.7 270.639 310.001 270.844C309.32 271.048 308.553 271.227 307.7 271.381C306.848 271.534 306.004 271.67 305.169 271.79C304.334 271.909 303.609 272.011 302.996 272.097C301.615 272.284 300.379 272.591 299.288 273.017C298.197 273.443 297.337 274.04 296.706 274.807C296.075 275.557 295.76 276.528 295.76 277.722C295.76 279.426 296.382 280.713 297.626 281.582C298.871 282.452 300.456 282.886 302.382 282.886Z" fill="#FF7F00"/>
<path d="M3.34943 366.895V327.622H12.196V334.295H12.6562C13.4744 332.045 14.8295 330.29 16.7216 329.028C18.6136 327.75 20.8722 327.111 23.4972 327.111C26.1562 327.111 28.3977 327.759 30.2216 329.054C32.0625 330.332 33.358 332.08 34.108 334.295H34.517C35.3864 332.114 36.8523 330.375 38.9148 329.08C40.9943 327.767 43.4574 327.111 46.304 327.111C49.9176 327.111 52.8665 328.253 55.1506 330.537C57.4347 332.821 58.5767 336.153 58.5767 340.534V366.895H49.2955V341.966C49.2955 339.528 48.6477 337.747 47.3523 336.622C46.0568 335.48 44.4716 334.909 42.5966 334.909C40.3636 334.909 38.6165 335.608 37.3551 337.006C36.1108 338.386 35.4886 340.185 35.4886 342.401V366.895H26.4119V341.582C26.4119 339.554 25.7983 337.935 24.571 336.724C23.3608 335.514 21.7756 334.909 19.8153 334.909C18.4858 334.909 17.2756 335.25 16.1847 335.932C15.0938 336.597 14.2244 337.543 13.5767 338.77C12.929 339.98 12.6051 341.395 12.6051 343.014V366.895H3.34943ZM85.353 367.662C81.4155 367.662 78.0149 366.844 75.1513 365.207C72.3047 363.554 70.1143 361.219 68.5803 358.202C67.0462 355.168 66.2791 351.597 66.2791 347.489C66.2791 343.449 67.0462 339.903 68.5803 336.852C70.1314 333.784 72.2962 331.398 75.0746 329.693C77.853 327.972 81.1172 327.111 84.8672 327.111C87.2876 327.111 89.5717 327.503 91.7195 328.287C93.8842 329.054 95.7933 330.247 97.4467 331.866C99.1172 333.486 100.43 335.548 101.384 338.054C102.339 340.543 102.816 343.509 102.816 346.952V349.79H70.6257V343.551H93.9439C93.9268 341.778 93.5433 340.202 92.7933 338.821C92.0433 337.423 90.995 336.324 89.6484 335.523C88.3189 334.722 86.7678 334.321 84.995 334.321C83.103 334.321 81.4411 334.781 80.0092 335.702C78.5774 336.605 77.4609 337.798 76.6598 339.281C75.8757 340.747 75.4751 342.358 75.4581 344.114V349.56C75.4581 351.844 75.8757 353.804 76.7109 355.44C77.5462 357.06 78.7138 358.304 80.2138 359.173C81.7138 360.026 83.4695 360.452 85.4808 360.452C86.8274 360.452 88.0462 360.264 89.1371 359.889C90.228 359.497 91.174 358.926 91.9751 358.176C92.7763 357.426 93.3814 356.497 93.7905 355.389L102.433 356.361C101.887 358.645 100.847 360.639 99.3132 362.344C97.7962 364.031 95.853 365.344 93.4837 366.281C91.1143 367.202 88.4041 367.662 85.353 367.662ZM110.646 366.895V327.622H119.493V334.295H119.953C120.771 332.045 122.126 330.29 124.018 329.028C125.911 327.75 128.169 327.111 130.794 327.111C133.453 327.111 135.695 327.759 137.518 329.054C139.359 330.332 140.655 332.08 141.405 334.295H141.814C142.683 332.114 144.149 330.375 146.212 329.08C148.291 327.767 150.754 327.111 153.601 327.111C157.214 327.111 160.163 328.253 162.447 330.537C164.732 332.821 165.874 336.153 165.874 340.534V366.895H156.592V341.966C156.592 339.528 155.945 337.747 154.649 336.622C153.354 335.48 151.768 334.909 149.893 334.909C147.661 334.909 145.913 335.608 144.652 337.006C143.408 338.386 142.786 340.185 142.786 342.401V366.895H133.709V341.582C133.709 339.554 133.095 337.935 131.868 336.724C130.658 335.514 129.072 334.909 127.112 334.909C125.783 334.909 124.572 335.25 123.482 335.932C122.391 336.597 121.521 337.543 120.874 338.77C120.226 339.98 119.902 341.395 119.902 343.014V366.895H110.646ZM192.394 367.662C188.559 367.662 185.235 366.818 182.423 365.131C179.61 363.443 177.428 361.082 175.877 358.048C174.343 355.014 173.576 351.469 173.576 347.412C173.576 343.355 174.343 339.801 175.877 336.75C177.428 333.699 179.61 331.33 182.423 329.642C185.235 327.955 188.559 327.111 192.394 327.111C196.229 327.111 199.553 327.955 202.366 329.642C205.178 331.33 207.352 333.699 208.886 336.75C210.437 339.801 211.212 343.355 211.212 347.412C211.212 351.469 210.437 355.014 208.886 358.048C207.352 361.082 205.178 363.443 202.366 365.131C199.553 366.818 196.229 367.662 192.394 367.662ZM192.445 360.247C194.525 360.247 196.263 359.676 197.661 358.534C199.059 357.375 200.099 355.824 200.781 353.881C201.479 351.938 201.829 349.773 201.829 347.386C201.829 344.983 201.479 342.81 200.781 340.866C200.099 338.906 199.059 337.347 197.661 336.188C196.263 335.028 194.525 334.449 192.445 334.449C190.315 334.449 188.542 335.028 187.127 336.188C185.729 337.347 184.681 338.906 183.982 340.866C183.3 342.81 182.96 344.983 182.96 347.386C182.96 349.773 183.3 351.938 183.982 353.881C184.681 355.824 185.729 357.375 187.127 358.534C188.542 359.676 190.315 360.247 192.445 360.247ZM219.068 366.895V327.622H228.043V334.168H228.452C229.168 331.901 230.395 330.153 232.134 328.926C233.889 327.682 235.892 327.06 238.142 327.06C238.653 327.06 239.224 327.085 239.855 327.136C240.503 327.17 241.04 327.23 241.466 327.315V335.83C241.074 335.693 240.452 335.574 239.599 335.472C238.764 335.352 237.955 335.293 237.17 335.293C235.483 335.293 233.966 335.659 232.619 336.392C231.29 337.108 230.241 338.105 229.474 339.384C228.707 340.662 228.324 342.136 228.324 343.807V366.895H219.068ZM254.563 381.622C253.302 381.622 252.134 381.52 251.06 381.315C250.004 381.128 249.16 380.906 248.529 380.651L250.677 373.44C252.023 373.832 253.225 374.02 254.282 374.003C255.339 373.986 256.268 373.653 257.069 373.006C257.887 372.375 258.577 371.318 259.14 369.835L259.933 367.713L245.691 327.622H255.509L264.56 357.281H264.969L274.046 327.622H283.89L268.165 371.651C267.433 373.73 266.461 375.511 265.251 376.994C264.04 378.494 262.558 379.636 260.802 380.42C259.063 381.222 256.984 381.622 254.563 381.622ZM317.41 314.531V366.895H308.154V314.531H317.41ZM344.058 367.662C340.223 367.662 336.899 366.818 334.087 365.131C331.274 363.443 329.092 361.082 327.541 358.048C326.007 355.014 325.24 351.469 325.24 347.412C325.24 343.355 326.007 339.801 327.541 336.75C329.092 333.699 331.274 331.33 334.087 329.642C336.899 327.955 340.223 327.111 344.058 327.111C347.893 327.111 351.217 327.955 354.03 329.642C356.842 331.33 359.016 333.699 360.55 336.75C362.101 339.801 362.876 343.355 362.876 347.412C362.876 351.469 362.101 355.014 360.55 358.048C359.016 361.082 356.842 363.443 354.03 365.131C351.217 366.818 347.893 367.662 344.058 367.662ZM344.109 360.247C346.189 360.247 347.928 359.676 349.325 358.534C350.723 357.375 351.763 355.824 352.445 353.881C353.143 351.938 353.493 349.773 353.493 347.386C353.493 344.983 353.143 342.81 352.445 340.866C351.763 338.906 350.723 337.347 349.325 336.188C347.928 335.028 346.189 334.449 344.109 334.449C341.979 334.449 340.206 335.028 338.791 336.188C337.393 337.347 336.345 338.906 335.646 340.866C334.964 342.81 334.624 344.983 334.624 347.386C334.624 349.773 334.964 351.938 335.646 353.881C336.345 355.824 337.393 357.375 338.791 358.534C340.206 359.676 341.979 360.247 344.109 360.247ZM401.772 338.003L393.335 338.923C393.096 338.071 392.678 337.27 392.082 336.52C391.502 335.77 390.718 335.165 389.729 334.705C388.741 334.244 387.531 334.014 386.099 334.014C384.173 334.014 382.553 334.432 381.241 335.267C379.945 336.102 379.306 337.185 379.323 338.514C379.306 339.656 379.724 340.585 380.576 341.301C381.445 342.017 382.877 342.605 384.871 343.065L391.57 344.497C395.286 345.298 398.048 346.568 399.854 348.307C401.678 350.045 402.599 352.321 402.616 355.134C402.599 357.605 401.874 359.787 400.442 361.679C399.028 363.554 397.059 365.02 394.536 366.077C392.013 367.134 389.116 367.662 385.843 367.662C381.036 367.662 377.167 366.656 374.235 364.645C371.303 362.616 369.556 359.795 368.994 356.182L378.019 355.313C378.428 357.085 379.298 358.423 380.627 359.327C381.957 360.23 383.687 360.682 385.817 360.682C388.016 360.682 389.781 360.23 391.11 359.327C392.457 358.423 393.13 357.307 393.13 355.977C393.13 354.852 392.695 353.923 391.826 353.19C390.974 352.457 389.644 351.895 387.837 351.503L381.138 350.097C377.371 349.313 374.585 347.991 372.778 346.134C370.971 344.259 370.076 341.889 370.093 339.026C370.076 336.605 370.732 334.509 372.062 332.736C373.408 330.946 375.275 329.565 377.661 328.594C380.065 327.605 382.835 327.111 385.971 327.111C390.573 327.111 394.195 328.091 396.837 330.051C399.496 332.011 401.141 334.662 401.772 338.003ZM441.288 338.003L432.85 338.923C432.612 338.071 432.194 337.27 431.597 336.52C431.018 335.77 430.234 335.165 429.245 334.705C428.256 334.244 427.046 334.014 425.614 334.014C423.688 334.014 422.069 334.432 420.756 335.267C419.461 336.102 418.822 337.185 418.839 338.514C418.822 339.656 419.239 340.585 420.092 341.301C420.961 342.017 422.393 342.605 424.387 343.065L431.086 344.497C434.802 345.298 437.563 346.568 439.37 348.307C441.194 350.045 442.114 352.321 442.131 355.134C442.114 357.605 441.39 359.787 439.958 361.679C438.543 363.554 436.575 365.02 434.052 366.077C431.529 367.134 428.631 367.662 425.359 367.662C420.552 367.662 416.683 366.656 413.751 364.645C410.819 362.616 409.072 359.795 408.509 356.182L417.535 355.313C417.944 357.085 418.813 358.423 420.143 359.327C421.472 360.23 423.202 360.682 425.333 360.682C427.532 360.682 429.296 360.23 430.626 359.327C431.972 358.423 432.646 357.307 432.646 355.977C432.646 354.852 432.211 353.923 431.342 353.19C430.489 352.457 429.16 351.895 427.353 351.503L420.654 350.097C416.887 349.313 414.1 347.991 412.293 346.134C410.487 344.259 409.592 341.889 409.609 339.026C409.592 336.605 410.248 334.509 411.577 332.736C412.924 330.946 414.79 329.565 417.177 328.594C419.58 327.605 422.35 327.111 425.487 327.111C430.089 327.111 433.711 328.091 436.353 330.051C439.012 332.011 440.657 334.662 441.288 338.003Z" fill="#DA4453"/>
</svg>
