<svg width="18" height="17" viewBox="0 0 18 17" fill="none" xmlns="http://www.w3.org/2000/svg">
<path d="M10.5 0C13.4016 0 16.0288 1.17792 17.9287 3.08008L17.5752 3.43359L17.2217 3.78613C15.5017 2.06413 13.1255 1 10.5 1C5.87975 1 2.03122 4.29852 1.17773 8.66895C2.92638 5.30152 6.44345 3 10.5 3C13.4016 3 16.0288 4.17792 17.9287 6.08008L17.5752 6.43359L17.2217 6.78613C15.5017 5.06413 13.1255 4 10.5 4C5.87975 4 2.03122 7.29852 1.17773 11.6689C2.92638 8.30152 6.44345 6 10.5 6C13.4016 6 16.0288 7.17792 17.9287 9.08008L17.5752 9.43359L17.2217 9.78613C15.5017 8.06413 13.1255 7 10.5 7C5.25329 7 1 11.2533 1 16.5H0C0 15.4573 0.154458 14.4508 0.4375 13.5H0C0 12.4573 0.154458 11.4508 0.4375 10.5H0C0 4.70101 4.70101 0 10.5 0Z" fill="black"/>
</svg>
