<svg width="18" height="15" viewBox="0 0 18 15" fill="none" xmlns="http://www.w3.org/2000/svg">
<path d="M3.25 5C5.87335 5 8 7.12665 8 9.75C8 12.3734 5.87335 14.5 3.25 14.5V14C5.59721 14 7.5 12.0972 7.5 9.75C7.5 7.40279 5.59721 5.5 3.25 5.5V5ZM11.5 11.25C11.5 12.7688 12.7312 14 14.25 14C15.7688 14 17 12.7688 17 11.25H17.5C17.5 13.0449 16.0449 14.5 14.25 14.5C12.4551 14.5 11 13.0449 11 11.25H11.5ZM17.4268 10.0732L17.0732 10.4268L15.5732 8.92676L15.9268 8.57324L17.4268 10.0732ZM10.25 0C13.0826 0 15.647 1.14964 17.502 3.00684L17.1484 3.36035C15.3834 1.5932 12.9446 0.5 10.25 0.5C4.86522 0.5 0.5 4.86522 0.5 10.25H0C0 4.58908 4.58908 0 10.25 0ZM14.25 5.25C15.3546 5.25 16.25 6.14543 16.25 7.25C16.25 8.35457 15.3546 9.25 14.25 9.25C13.1454 9.25 12.25 8.35457 12.25 7.25C12.25 6.14543 13.1454 5.25 14.25 5.25ZM14.25 5.75C13.4216 5.75 12.75 6.42157 12.75 7.25C12.75 8.07843 13.4216 8.75 14.25 8.75C15.0784 8.75 15.75 8.07843 15.75 7.25C15.75 6.42157 15.0784 5.75 14.25 5.75ZM14.25 6.25C14.8023 6.25 15.25 6.69772 15.25 7.25C15.25 7.80228 14.8023 8.25 14.25 8.25C13.6977 8.25 13.25 7.80228 13.25 7.25C13.25 6.69772 13.6977 6.25 14.25 6.25ZM14.25 6.75C13.9739 6.75 13.75 6.97386 13.75 7.25C13.75 7.52614 13.9739 7.75 14.25 7.75C14.5261 7.75 14.75 7.52614 14.75 7.25C14.75 6.97386 14.5261 6.75 14.25 6.75ZM12.9268 5.57324L12.5732 5.92676L11.0732 4.42676L11.4268 4.07324L12.9268 5.57324Z" fill="black"/>
</svg>
