<svg width="17" height="17" viewBox="0 0 17 17" fill="none" xmlns="http://www.w3.org/2000/svg">
<path d="M3.77051 3.06348C4.99857 1.99862 6.60048 1.35352 8.35352 1.35352C12.2195 1.35352 15.3535 4.48752 15.3535 8.35352C15.3535 10.1 14.7121 11.6956 13.6543 12.9219L16.7451 15.8408L16.0576 16.5674L12.9482 13.6309C11.7185 14.7024 10.1127 15.3535 8.35352 15.3535C4.48752 15.3535 1.35352 12.2195 1.35352 8.35352C1.35352 6.60048 1.99862 4.99857 3.06348 3.77051L0 0.707031L0.707031 0L3.77051 3.06348ZM8.35352 2.35352C5.03981 2.35352 2.35352 5.03981 2.35352 8.35352C2.35352 11.6672 5.03981 14.3535 8.35352 14.3535C11.6672 14.3535 14.3535 11.6672 14.3535 8.35352C14.3535 5.03981 11.6672 2.35352 8.35352 2.35352ZM8.35352 5.35352C10.0104 5.35352 11.3535 6.69666 11.3535 8.35352C11.3535 10.0104 10.0104 11.3535 8.35352 11.3535C6.69666 11.3535 5.35352 10.0104 5.35352 8.35352C5.35352 6.69666 6.69666 5.35352 8.35352 5.35352ZM8.35352 6.35352C7.24895 6.35352 6.35352 7.24895 6.35352 8.35352C6.35352 9.45809 7.24895 10.3535 8.35352 10.3535C9.45809 10.3535 10.3535 9.45809 10.3535 8.35352C10.3535 7.24895 9.45809 6.35352 8.35352 6.35352Z" fill="black"/>
</svg>
